solid AssimpScene
 facet normal -0.253965 0.414237 -0.874019
  outer loop
  vertex -32.4836 55.4013 1.77636
  vertex -16.8671 61.2288 0.000586402
  vertex -42.6652 45.411 -1.64007e-05
  endloop
 endfacet

 facet normal 0.120327 -0.95906 -0.256371
  outer loop
  vertex 18.4162 7.11221 9.60275
  vertex 15.4232 9.29784 0.0217573
  vertex 34.8815 11.7449 0.000365919
  endloop
 endfacet

 facet normal 0.715549 -0.565139 0.410617
  outer loop
  vertex -29.8683 15.6487 5.69048
  vertex -37.6635 1.6453 0.00155344
  vertex -24.3642 18.4831 0
  endloop
 endfacet

 facet normal -0.000855082 -0.00194231 -0.999998
  outer loop
  vertex 15.4232 9.29784 0.0217573
  vertex 11.7108 22.1233 2.07708e-05
  vertex 34.8815 11.7449 0.000365919
  endloop
 endfacet

 facet normal 0.0915399 0.395378 -0.913945
  outer loop
  vertex 0.666606 68.5495 4.92372
  vertex 21.7323 52.2907 1.78336e-05
  vertex -16.8671 61.2288 0.000586402
  endloop
 endfacet

 facet normal -4.28658e-06 4.51003e-05 -1
  outer loop
  vertex -16.8671 61.2288 0.000586402
  vertex 21.7323 52.2907 1.78336e-05
  vertex -42.6652 45.411 -1.64007e-05
  endloop
 endfacet

 facet normal 1.29286e-05 -4.39217e-06 -1
  outer loop
  vertex 34.8815 11.7449 0.000365919
  vertex 11.7108 22.1233 2.07708e-05
  vertex 21.7323 52.2907 1.78336e-05
  endloop
 endfacet

 facet normal -1.53781e-05 5.01117e-06 -1
  outer loop
  vertex 11.7108 22.1233 2.07708e-05
  vertex -4.91279 11.2394 0.000221869
  vertex 21.7323 52.2907 1.78336e-05
  endloop
 endfacet

 facet normal -0.000250235 -6.4467e-05 -1
  outer loop
  vertex -51.6707 17.7196 0.00402227
  vertex -42.6652 45.411 -1.64007e-05
  vertex -37.6635 1.6453 0.00155344
  endloop
 endfacet

 facet normal -6.23692e-05 -4.2997e-05 -1
  outer loop
  vertex -37.6635 1.6453 0.00155344
  vertex -42.6652 45.411 -1.64007e-05
  vertex -24.3642 18.4831 0
  endloop
 endfacet

 facet normal 5.56287e-07 -2.30991e-07 -1
  outer loop
  vertex -42.6652 45.411 -1.64007e-05
  vertex 21.7323 52.2907 1.78336e-05
  vertex -24.3642 18.4831 0
  endloop
 endfacet

 facet normal 9.43977e-06 -8.10744e-06 -1
  outer loop
  vertex -24.3642 18.4831 0
  vertex 21.7323 52.2907 1.78336e-05
  vertex -4.91279 11.2394 0.000221869
  endloop
 endfacet

 facet normal 0.259115 -0.122133 -0.958093
  outer loop
  vertex -24.8569 -43.7896 3.45053
  vertex -38.5944 -45.8779 0.00145528
  vertex -31.3973 -30.6554 0.00738799
  endloop
 endfacet

 facet normal 0.000121173 0.000332443 -1
  outer loop
  vertex -31.3973 -30.6554 0.00738799
  vertex -38.5944 -45.8779 0.00145528
  vertex -42.7982 -29.9709 0.00623406
  endloop
 endfacet

 facet normal 0.16618 0.483876 -0.859214
  outer loop
  vertex 24.5936 -14.3018 4.87778
  vertex 29.6816 -24.6813 0.0164869
  vertex 19.0854 -21.0462 0.0142145
  endloop
 endfacet

 facet normal 0.000847637 0.00184575 -0.999998
  outer loop
  vertex 19.0854 -21.0462 0.0142145
  vertex 29.6816 -24.6813 0.0164869
  vertex 15.0607 -26.0682 0.00153372
  endloop
 endfacet

 facet normal -0.303781 -0.230905 -0.924338
  outer loop
  vertex 11.8239 -31.5707 2.43985
  vertex 15.0607 -26.0682 0.00153372
  vertex 27.1307 -41.9414 -9.72969e-06
  endloop
 endfacet

 facet normal 0.000945317 0.000816054 -0.999999
  outer loop
  vertex 15.0607 -26.0682 0.00153372
  vertex 29.6816 -24.6813 0.0164869
  vertex 27.1307 -41.9414 -9.72969e-06
  endloop
 endfacet

 facet normal -0.205584 -0.975956 -0.072426
  outer loop
  vertex -31.4633 -47.6706 3.91718
  vertex -40.3967 -46.0257 7.10846
  vertex -38.5944 -45.8779 0.00145528
  endloop
 endfacet

 facet normal -0.557647 -0.814833 -0.158359
  outer loop
  vertex -38.5944 -45.8779 0.00145528
  vertex -40.3967 -46.0257 7.10846
  vertex -48.4596 -39.7844 3.38705
  endloop
 endfacet

 facet normal 0.458708 -0.717853 0.523712
  outer loop
  vertex -24.8569 -43.7896 3.45053
  vertex -31.2395 -43.1238 9.9536
  vertex -31.4633 -47.6706 3.91718
  endloop
 endfacet

 facet normal -0.868374 0.399947 -0.293205
  outer loop
  vertex -42.7982 -29.9709 0.00623406
  vertex -48.4596 -39.7844 3.38705
  vertex -43.2402 -21.8183 12.4359
  endloop
 endfacet

 facet normal -0.554013 -0.240482 0.797018
  outer loop
  vertex -48.4596 -39.7844 3.38705
  vertex -40.3967 -46.0257 7.10846
  vertex -43.2402 -21.8183 12.4359
  endloop
 endfacet

 facet normal -0.379255 -0.534983 0.754956
  outer loop
  vertex -40.3967 -46.0257 7.10846
  vertex -32.3436 -33.434 20.0768
  vertex -43.0909 -24.9813 20.6676
  endloop
 endfacet

 facet normal 0.0669106 -0.798157 0.598722
  outer loop
  vertex -40.3967 -46.0257 7.10846
  vertex -31.4633 -47.6706 3.91718
  vertex -31.2395 -43.1238 9.9536
  endloop
 endfacet

 facet normal 0.0136084 -0.721592 0.692185
  outer loop
  vertex -31.2395 -43.1238 9.9536
  vertex -32.3436 -33.434 20.0768
  vertex -40.3967 -46.0257 7.10846
  endloop
 endfacet

 facet normal 0.838509 -0.345042 0.421721
  outer loop
  vertex -25.3266 -33.6101 5.98069
  vertex -32.3436 -33.434 20.0768
  vertex -31.2395 -43.1238 9.9536
  endloop
 endfacet

 facet normal 0.443055 -0.866122 0.231374
  outer loop
  vertex -24.9937 -31.0097 15.0776
  vertex -32.3436 -33.434 20.0768
  vertex -25.3266 -33.6101 5.98069
  endloop
 endfacet

 facet normal -0.993484 -0.111259 -0.024724
  outer loop
  vertex -43.0909 -24.9813 20.6676
  vertex -43.2402 -21.8183 12.4359
  vertex -40.3967 -46.0257 7.10846
  endloop
 endfacet

 facet normal -0.61223 -0.764263 -0.202676
  outer loop
  vertex -32.3436 -33.434 20.0768
  vertex -43.2082 -30.2384 40.8459
  vertex -43.0909 -24.9813 20.6676
  endloop
 endfacet

 facet normal -0.78096 0.509167 -0.361733
  outer loop
  vertex -43.2402 -21.8183 12.4359
  vertex -37.9394 -17.2259 7.45577
  vertex -42.7982 -29.9709 0.00623406
  endloop
 endfacet

 facet normal -0.986353 0.146906 0.074346
  outer loop
  vertex -40.0989 -10.0335 30.8251
  vertex -43.2402 -21.8183 12.4359
  vertex -43.0909 -24.9813 20.6676
  endloop
 endfacet

 facet normal -0.758705 0.599599 -0.254653
  outer loop
  vertex -43.2402 -21.8183 12.4359
  vertex -40.0989 -10.0335 30.8251
  vertex -37.9394 -17.2259 7.45577
  endloop
 endfacet

 facet normal -0.942272 -0.322653 -0.0895424
  outer loop
  vertex -47.3678 -19.6989 46.6396
  vertex -43.0909 -24.9813 20.6676
  vertex -43.2082 -30.2384 40.8459
  endloop
 endfacet

 facet normal -0.288833 -0.957372 -0.00378975
  outer loop
  vertex -35.1468 -32.6978 47.7364
  vertex -43.2082 -30.2384 40.8459
  vertex -32.3436 -33.434 20.0768
  endloop
 endfacet

 facet normal -0.633373 -0.549496 0.544879
  outer loop
  vertex -35.1468 -32.6978 47.7364
  vertex -47.3678 -19.6989 46.6396
  vertex -43.2082 -30.2384 40.8459
  endloop
 endfacet

 facet normal 0.277146 -0.784116 -0.555294
  outer loop
  vertex -21.0332 -26.7681 46.4072
  vertex -26.4492 -34.8778 55.1556
  vertex -35.1468 -32.6978 47.7364
  endloop
 endfacet

 facet normal -0.180465 -0.739314 -0.648728
  outer loop
  vertex -19.32 -18.8017 41.8856
  vertex -6.58135 -22.1834 42.1959
  vertex -11.774 -37.0887 60.6269
  endloop
 endfacet

 facet normal 0.508138 -0.505197 -0.697547
  outer loop
  vertex -21.0332 -26.7681 46.4072
  vertex -19.32 -18.8017 41.8856
  vertex -11.774 -37.0887 60.6269
  endloop
 endfacet

 facet normal 0.195838 -0.788747 -0.582688
  outer loop
  vertex -11.774 -37.0887 60.6269
  vertex -6.58135 -22.1834 42.1959
  vertex 3.18967 -25.2246 49.5965
  endloop
 endfacet

 facet normal -0.917502 0.332231 -0.218661
  outer loop
  vertex -40.0989 -10.0335 30.8251
  vertex -43.0909 -24.9813 20.6676
  vertex -47.3678 -19.6989 46.6396
  endloop
 endfacet

 facet normal -0.403072 0.824142 -0.397898
  outer loop
  vertex -32.619 -5.22571 33.2059
  vertex -40.0989 -10.0335 30.8251
  vertex -41.4845 -0.261225 52.4693
  endloop
 endfacet

 facet normal -0.874316 -0.377474 -0.305098
  outer loop
  vertex -38.9632 6.3928 37.0115
  vertex -32.619 -5.22571 33.2059
  vertex -41.4845 -0.261225 52.4693
  endloop
 endfacet

 facet normal -0.91575 0.340921 -0.212544
  outer loop
  vertex -40.0989 -10.0335 30.8251
  vertex -47.3678 -19.6989 46.6396
  vertex -41.4845 -0.261225 52.4693
  endloop
 endfacet

 facet normal -0.825423 0.376096 -0.420985
  outer loop
  vertex -41.4845 -0.261225 52.4693
  vertex -47.3678 -19.6989 46.6396
  vertex -47.4937 -8.17101 57.1852
  endloop
 endfacet

 facet normal -0.178749 -0.733495 -0.655769
  outer loop
  vertex -6.58135 -22.1834 42.1959
  vertex -19.32 -18.8017 41.8856
  vertex -10.4243 -8.02478 27.4065
  endloop
 endfacet

 facet normal 0.262588 -0.719876 -0.642516
  outer loop
  vertex 3.18967 -25.2246 49.5965
  vertex -6.58135 -22.1834 42.1959
  vertex 4.92247 -5.06139 27.7138
  endloop
 endfacet

 facet normal 0.148257 -0.694832 -0.703725
  outer loop
  vertex 4.92247 -5.06139 27.7138
  vertex -6.58135 -22.1834 42.1959
  vertex -10.4243 -8.02478 27.4065
  endloop
 endfacet

 facet normal -0.7111 -0.682719 -0.168021
  outer loop
  vertex -35.1468 -32.6978 47.7364
  vertex -44.0124 -27.2763 63.2287
  vertex -47.3678 -19.6989 46.6396
  endloop
 endfacet

 facet normal -0.509483 -0.860428 0.00954403
  outer loop
  vertex -44.0124 -27.2763 63.2287
  vertex -35.1468 -32.6978 47.7364
  vertex -29.6822 -35.5591 81.4871
  endloop
 endfacet

 facet normal -0.202356 -0.978027 -0.0501532
  outer loop
  vertex -29.6822 -35.5591 81.4871
  vertex -35.1468 -32.6978 47.7364
  vertex -26.4492 -34.8778 55.1556
  endloop
 endfacet

 facet normal -0.492857 -0.86615 -0.0829256
  outer loop
  vertex -26.4492 -34.8778 55.1556
  vertex -21.8014 -39.3046 73.7697
  vertex -29.6822 -35.5591 81.4871
  endloop
 endfacet

 facet normal -0.719649 -0.637237 0.275744
  outer loop
  vertex -29.6822 -35.5591 81.4871
  vertex -40.0545 -22.0239 85.6964
  vertex -44.0124 -27.2763 63.2287
  endloop
 endfacet

 facet normal 0.121047 -0.764222 -0.633492
  outer loop
  vertex -26.4492 -34.8778 55.1556
  vertex -21.0332 -26.7681 46.4072
  vertex -11.774 -37.0887 60.6269
  endloop
 endfacet

 facet normal -0.559309 -0.634319 -0.533678
  outer loop
  vertex -21.8014 -39.3046 73.7697
  vertex -11.774 -37.0887 60.6269
  vertex -15.6979 -44.2631 73.2667
  endloop
 endfacet

 facet normal -0.0665984 -0.974322 -0.215086
  outer loop
  vertex -21.8014 -39.3046 73.7697
  vertex -26.4492 -34.8778 55.1556
  vertex -11.774 -37.0887 60.6269
  endloop
 endfacet

 facet normal 0.0584405 -0.875865 -0.479005
  outer loop
  vertex 5.61136 -36.3439 61.3862
  vertex -15.6979 -44.2631 73.2667
  vertex -11.774 -37.0887 60.6269
  endloop
 endfacet

 facet normal 0.0450264 -0.866632 -0.496911
  outer loop
  vertex 5.61136 -36.3439 61.3862
  vertex 2.42619 -42.2095 71.3273
  vertex -15.6979 -44.2631 73.2667
  endloop
 endfacet

 facet normal 0.113064 -0.993578 0.00449953
  outer loop
  vertex -10.9585 -43.6741 84.2316
  vertex -15.6979 -44.2631 73.2667
  vertex 2.42619 -42.2095 71.3273
  endloop
 endfacet

 facet normal -0.981308 -0.135619 0.136533
  outer loop
  vertex -47.3678 -19.6989 46.6396
  vertex -44.0124 -27.2763 63.2287
  vertex -47.4937 -8.17101 57.1852
  endloop
 endfacet

 facet normal -0.768824 0.633965 0.0836485
  outer loop
  vertex -39.2427 -1.83813 85.025
  vertex -41.4845 -0.261225 52.4693
  vertex -47.4937 -8.17101 57.1852
  endloop
 endfacet

 facet normal -0.973417 -0.114649 0.198279
  outer loop
  vertex -44.0124 -27.2763 63.2287
  vertex -40.0545 -22.0239 85.6964
  vertex -47.4937 -8.17101 57.1852
  endloop
 endfacet

 facet normal -0.960591 0.047742 0.273835
  outer loop
  vertex -47.4937 -8.17101 57.1852
  vertex -40.0545 -22.0239 85.6964
  vertex -39.2427 -1.83813 85.025
  endloop
 endfacet

 facet normal 0.195339 -0.924652 -0.326897
  outer loop
  vertex -13.7966 -49.4103 98.7608
  vertex -10.9585 -43.6741 84.2316
  vertex 3.02192 -42.0289 87.9319
  endloop
 endfacet

 facet normal -0.137862 -0.705594 -0.695076
  outer loop
  vertex -13.7966 -49.4103 98.7608
  vertex 3.02192 -42.0289 87.9319
  vertex -2.11658 -56.8562 104.003
  endloop
 endfacet

 facet normal 0.168966 -0.827176 -0.535939
  outer loop
  vertex -6.63004 -68.7006 120.861
  vertex -12.331 -61.3986 107.793
  vertex -2.11658 -56.8562 104.003
  endloop
 endfacet

 facet normal -0.100315 -0.80127 -0.589834
  outer loop
  vertex -6.63004 -68.7006 120.861
  vertex -2.11658 -56.8562 104.003
  vertex 10.0155 -63.6059 111.109
  endloop
 endfacet

 facet normal -0.192557 -0.605403 -0.772276
  outer loop
  vertex -13.7966 -49.4103 98.7608
  vertex -12.331 -61.3986 107.793
  vertex -20.9876 -62.5008 110.816
  endloop
 endfacet

 facet normal -0.0272325 -0.603655 -0.79678
  outer loop
  vertex -12.331 -61.3986 107.793
  vertex -13.7966 -49.4103 98.7608
  vertex -2.11658 -56.8562 104.003
  endloop
 endfacet

 facet normal -0.0636941 -0.864925 -0.497844
  outer loop
  vertex -11.7325 -69.8218 122.351
  vertex -20.9876 -62.5008 110.816
  vertex -12.331 -61.3986 107.793
  endloop
 endfacet

 facet normal 0.0433406 -0.863962 -0.501688
  outer loop
  vertex -11.7325 -69.8218 122.351
  vertex -12.331 -61.3986 107.793
  vertex -6.63004 -68.7006 120.861
  endloop
 endfacet

 facet normal -0.605727 -0.79545 -0.0188426
  outer loop
  vertex -19.4779 -64.0019 125.653
  vertex -20.9876 -62.5008 110.816
  vertex -11.7325 -69.8218 122.351
  endloop
 endfacet

 facet normal -0.973823 -0.213703 0.0774634
  outer loop
  vertex -22.8545 -49.3662 123.581
  vertex -20.9876 -62.5008 110.816
  vertex -19.4779 -64.0019 125.653
  endloop
 endfacet

 facet normal -0.421235 -0.880839 0.216065
  outer loop
  vertex -22.342 -34.9088 98.4488
  vertex -29.6822 -35.5591 81.4871
  vertex -15.6979 -44.2631 73.2667
  endloop
 endfacet

 facet normal -0.570155 -0.608555 0.551891
  outer loop
  vertex -30.4436 -20.5269 97.2762
  vertex -40.0545 -22.0239 85.6964
  vertex -29.6822 -35.5591 81.4871
  endloop
 endfacet

 facet normal -0.821374 -0.432363 0.37203
  outer loop
  vertex -22.342 -34.9088 98.4488
  vertex -30.4436 -20.5269 97.2762
  vertex -29.6822 -35.5591 81.4871
  endloop
 endfacet

 facet normal -0.619634 -0.734694 -0.276186
  outer loop
  vertex -21.8014 -39.3046 73.7697
  vertex -15.6979 -44.2631 73.2667
  vertex -29.6822 -35.5591 81.4871
  endloop
 endfacet

 facet normal -0.404847 -0.886868 0.222628
  outer loop
  vertex -22.342 -34.9088 98.4488
  vertex -15.6979 -44.2631 73.2667
  vertex -10.9585 -43.6741 84.2316
  endloop
 endfacet

 facet normal -0.804623 -0.481617 -0.347315
  outer loop
  vertex -22.342 -34.9088 98.4488
  vertex -10.9585 -43.6741 84.2316
  vertex -13.7966 -49.4103 98.7608
  endloop
 endfacet

 facet normal -0.98 0.0458554 0.19364
  outer loop
  vertex -37.3062 -5.3337 95.6531
  vertex -39.2427 -1.83813 85.025
  vertex -40.0545 -22.0239 85.6964
  endloop
 endfacet

 facet normal -0.726227 -0.260049 0.636372
  outer loop
  vertex -40.0545 -22.0239 85.6964
  vertex -30.4436 -20.5269 97.2762
  vertex -37.3062 -5.3337 95.6531
  endloop
 endfacet

 facet normal -0.721553 -0.257251 0.642794
  outer loop
  vertex -25.9407 -6.08958 108.109
  vertex -37.3062 -5.3337 95.6531
  vertex -30.4436 -20.5269 97.2762
  endloop
 endfacet

 facet normal -0.902665 -0.0439418 -0.428094
  outer loop
  vertex -27.4542 -21.7364 107.876
  vertex -22.342 -34.9088 98.4488
  vertex -28.7615 -35.351 112.03
  endloop
 endfacet

 facet normal -0.862017 -0.470144 0.18945
  outer loop
  vertex -30.4436 -20.5269 97.2762
  vertex -22.342 -34.9088 98.4488
  vertex -27.4542 -21.7364 107.876
  endloop
 endfacet

 facet normal -0.94907 -0.278351 0.147602
  outer loop
  vertex -22.8545 -49.3662 123.581
  vertex -28.7615 -35.351 112.03
  vertex -20.9876 -62.5008 110.816
  endloop
 endfacet

 facet normal -0.995375 0.0788141 -0.0549296
  outer loop
  vertex -28.4267 -21.8738 125.302
  vertex -27.4542 -21.7364 107.876
  vertex -28.7615 -35.351 112.03
  endloop
 endfacet

 facet normal -0.579008 -0.356967 -0.733024
  outer loop
  vertex -13.7966 -49.4103 98.7608
  vertex -20.9876 -62.5008 110.816
  vertex -22.342 -34.9088 98.4488
  endloop
 endfacet

 facet normal -0.876464 -0.23209 -0.421835
  outer loop
  vertex -22.342 -34.9088 98.4488
  vertex -20.9876 -62.5008 110.816
  vertex -28.7615 -35.351 112.03
  endloop
 endfacet

 facet normal -0.680487 0.352628 0.642333
  outer loop
  vertex -25.9407 -6.08958 108.109
  vertex -24.8848 15.8183 97.2003
  vertex -37.3062 -5.3337 95.6531
  endloop
 endfacet

 facet normal -0.967812 0.150497 0.20172
  outer loop
  vertex -22.0572 -11.4102 130.711
  vertex -25.9407 -6.08958 108.109
  vertex -30.4436 -20.5269 97.2762
  endloop
 endfacet

 facet normal -0.96184 -0.0775321 0.262399
  outer loop
  vertex -22.0572 -11.4102 130.711
  vertex -30.4436 -20.5269 97.2762
  vertex -27.4542 -21.7364 107.876
  endloop
 endfacet

 facet normal -0.843406 0.535565 -0.042848
  outer loop
  vertex -28.4267 -21.8738 125.302
  vertex -22.0572 -11.4102 130.711
  vertex -27.4542 -21.7364 107.876
  endloop
 endfacet

 facet normal -0.691024 0.668064 0.275999
  outer loop
  vertex -25.9407 -6.08958 108.109
  vertex -22.0572 -11.4102 130.711
  vertex -17.372 -6.64562 130.908
  endloop
 endfacet

 facet normal 0.490081 -0.657515 0.572272
  outer loop
  vertex 24.8885 -34.1478 10.8747
  vertex 19.5139 -42.5035 5.87707
  vertex 27.1307 -41.9414 -9.72969e-06
  endloop
 endfacet

 facet normal 0.0874508 -0.801075 0.592141
  outer loop
  vertex 27.1307 -41.9414 -9.72969e-06
  vertex 33.9453 -37.6996 4.73213
  vertex 24.8885 -34.1478 10.8747
  endloop
 endfacet

 facet normal -0.51417 -0.641324 0.569503
  outer loop
  vertex 19.5139 -42.5035 5.87707
  vertex 16.1493 -30.294 16.5885
  vertex 12.439 -39.6226 2.73368
  endloop
 endfacet

 facet normal 0.231555 -0.604724 0.762031
  outer loop
  vertex 24.8885 -34.1478 10.8747
  vertex 16.1493 -30.294 16.5885
  vertex 19.5139 -42.5035 5.87707
  endloop
 endfacet

 facet normal 0.0703812 -0.773777 0.629536
  outer loop
  vertex 24.8885 -34.1478 10.8747
  vertex 27.1587 -27.1406 19.2337
  vertex 16.1493 -30.294 16.5885
  endloop
 endfacet

 facet normal -0.710022 -0.696246 0.105406
  outer loop
  vertex 7.47223 -18.5253 35.876
  vertex 10.0451 -25.39 7.86335
  vertex 16.1493 -30.294 16.5885
  endloop
 endfacet

 facet normal 0.288425 -0.955538 -0.0613028
  outer loop
  vertex 26.1995 -28.6741 38.6237
  vertex 16.1493 -30.294 16.5885
  vertex 27.1587 -27.1406 19.2337
  endloop
 endfacet

 facet normal 0.574504 0.0522906 0.81683
  outer loop
  vertex 24.8885 -34.1478 10.8747
  vertex 33.9453 -37.6996 4.73213
  vertex 31.0245 -21.9149 5.77595
  endloop
 endfacet

 facet normal 0.905448 -0.41253 0.0999132
  outer loop
  vertex 27.1587 -27.1406 19.2337
  vertex 24.8885 -34.1478 10.8747
  vertex 31.0245 -21.9149 5.77595
  endloop
 endfacet

 facet normal 0.548163 0.76547 -0.337007
  outer loop
  vertex 15.8687 -3.74316 22.3939
  vertex 24.8491 -1.31745 42.5106
  vertex 27.3083 -12.653 20.7634
  endloop
 endfacet

 facet normal 0.515776 0.79236 -0.325792
  outer loop
  vertex 24.8491 -1.31745 42.5106
  vertex 15.8687 -3.74316 22.3939
  vertex 18.4332 0.0801403 35.7525
  endloop
 endfacet

 facet normal 0.760556 0.619527 -0.194271
  outer loop
  vertex 24.5936 -14.3018 4.87778
  vertex 27.3083 -12.653 20.7634
  vertex 31.0245 -21.9149 5.77595
  endloop
 endfacet

 facet normal 0.964235 -0.0376656 0.26236
  outer loop
  vertex 27.3083 -12.653 20.7634
  vertex 27.1587 -27.1406 19.2337
  vertex 31.0245 -21.9149 5.77595
  endloop
 endfacet

 facet normal -0.778496 -0.626821 0.0322397
  outer loop
  vertex 7.47223 -18.5253 35.876
  vertex 16.1493 -30.294 16.5885
  vertex 16.8153 -29.5277 47.572
  endloop
 endfacet

 facet normal 0.111516 -0.993515 0.0221768
  outer loop
  vertex 16.8153 -29.5277 47.572
  vertex 16.1493 -30.294 16.5885
  vertex 26.1995 -28.6741 38.6237
  endloop
 endfacet

 facet normal -0.319124 -0.721295 -0.61473
  outer loop
  vertex 16.8153 -29.5277 47.572
  vertex 5.61136 -36.3439 61.3862
  vertex 3.18967 -25.2246 49.5965
  endloop
 endfacet

 facet normal 0.302606 -0.929017 -0.212971
  outer loop
  vertex 5.61136 -36.3439 61.3862
  vertex 16.8153 -29.5277 47.572
  vertex 23.4903 -30.0134 59.1753
  endloop
 endfacet

 facet normal 0.929178 -0.369253 0.0167617
  outer loop
  vertex 27.1587 -27.1406 19.2337
  vertex 31.1798 -15.9689 42.4305
  vertex 26.1995 -28.6741 38.6237
  endloop
 endfacet

 facet normal 0.482386 -0.761308 0.43326
  outer loop
  vertex 29.6107 -17.6102 54.2668
  vertex 16.8153 -29.5277 47.572
  vertex 26.1995 -28.6741 38.6237
  endloop
 endfacet

 facet normal -0.327678 -0.804639 -0.495159
  outer loop
  vertex 16.8153 -29.5277 47.572
  vertex 3.18967 -25.2246 49.5965
  vertex 7.47223 -18.5253 35.876
  endloop
 endfacet

 facet normal -0.785793 -0.422589 -0.451606
  outer loop
  vertex 3.18967 -25.2246 49.5965
  vertex 4.92247 -5.06139 27.7138
  vertex 7.47223 -18.5253 35.876
  endloop
 endfacet

 facet normal 0.984594 0.00827065 -0.174661
  outer loop
  vertex 27.3083 -12.653 20.7634
  vertex 31.1798 -15.9689 42.4305
  vertex 27.1587 -27.1406 19.2337
  endloop
 endfacet

 facet normal 0.912916 0.395023 -0.102666
  outer loop
  vertex 31.1798 -15.9689 42.4305
  vertex 27.3083 -12.653 20.7634
  vertex 24.8491 -1.31745 42.5106
  endloop
 endfacet

 facet normal 0.921573 -0.381986 0.0692064
  outer loop
  vertex 29.6107 -17.6102 54.2668
  vertex 26.1995 -28.6741 38.6237
  vertex 31.1798 -15.9689 42.4305
  endloop
 endfacet

 facet normal 0.904325 0.389798 0.173936
  outer loop
  vertex 31.1798 -15.9689 42.4305
  vertex 24.8491 -1.31745 42.5106
  vertex 29.6107 -17.6102 54.2668
  endloop
 endfacet

 facet normal 0.965196 0.259678 -0.0310505
  outer loop
  vertex 29.6107 -17.6102 54.2668
  vertex 24.8491 -1.31745 42.5106
  vertex 23.3899 6.08627 59.0706
  endloop
 endfacet

 facet normal 0.781955 0.314392 -0.538242
  outer loop
  vertex 23.3899 6.08627 59.0706
  vertex 29.201 -1.75925 62.9303
  vertex 29.6107 -17.6102 54.2668
  endloop
 endfacet

 facet normal 0.0610339 -0.719843 -0.691449
  outer loop
  vertex 3.18967 -25.2246 49.5965
  vertex 5.61136 -36.3439 61.3862
  vertex -11.774 -37.0887 60.6269
  endloop
 endfacet

 facet normal 0.724552 -0.53128 -0.439051
  outer loop
  vertex 23.4903 -30.0134 59.1753
  vertex 16.8153 -29.5277 47.572
  vertex 29.6107 -17.6102 54.2668
  endloop
 endfacet

 facet normal 0.304141 -0.930409 -0.204542
  outer loop
  vertex 23.4903 -30.0134 59.1753
  vertex 14.2679 -37.7701 80.7453
  vertex 5.61136 -36.3439 61.3862
  endloop
 endfacet

 facet normal 0.533039 -0.792353 -0.296725
  outer loop
  vertex 5.61136 -36.3439 61.3862
  vertex 14.2679 -37.7701 80.7453
  vertex 2.42619 -42.2095 71.3273
  endloop
 endfacet

 facet normal 0.81543 -0.559791 0.147339
  outer loop
  vertex 14.2679 -37.7701 80.7453
  vertex 23.4903 -30.0134 59.1753
  vertex 29.4624 -20.6148 61.8321
  endloop
 endfacet

 facet normal 0.805999 -0.579169 0.122185
  outer loop
  vertex 29.4624 -20.6148 61.8321
  vertex 25.7399 -21.3909 82.7093
  vertex 14.2679 -37.7701 80.7453
  endloop
 endfacet

 facet normal 0.852531 -0.491284 -0.178411
  outer loop
  vertex 29.4624 -20.6148 61.8321
  vertex 23.4903 -30.0134 59.1753
  vertex 29.6107 -17.6102 54.2668
  endloop
 endfacet

 facet normal 0.999622 0.0124323 0.0245277
  outer loop
  vertex 29.4624 -20.6148 61.8321
  vertex 29.6107 -17.6102 54.2668
  vertex 29.201 -1.75925 62.9303
  endloop
 endfacet

 facet normal 0.984445 0.00341978 0.175661
  outer loop
  vertex 25.7399 -21.3909 82.7093
  vertex 29.4624 -20.6148 61.8321
  vertex 29.201 -1.75925 62.9303
  endloop
 endfacet

 facet normal 0.943245 0.138026 0.302055
  outer loop
  vertex 22.7865 1.77862 81.3443
  vertex 25.7399 -21.3909 82.7093
  vertex 29.201 -1.75925 62.9303
  endloop
 endfacet

 facet normal 0.150452 -0.575693 -0.803705
  outer loop
  vertex 8.51322 -44.5723 97.1937
  vertex 10.0155 -63.6059 111.109
  vertex -2.11658 -56.8562 104.003
  endloop
 endfacet

 facet normal 0.291729 -0.549393 -0.782982
  outer loop
  vertex 18.9324 -59.5773 111.604
  vertex 10.0155 -63.6059 111.109
  vertex 8.51322 -44.5723 97.1937
  endloop
 endfacet

 facet normal 0.714773 -0.15797 -0.681282
  outer loop
  vertex 8.51322 -44.5723 97.1937
  vertex 21.2386 -34.3284 108.169
  vertex 18.9324 -59.5773 111.604
  endloop
 endfacet

 facet normal 0.371251 -0.915429 0.155445
  outer loop
  vertex -6.63004 -68.7006 120.861
  vertex 10.0155 -63.6059 111.109
  vertex -2.39557 -64.4006 136.07
  endloop
 endfacet

 facet normal -0.419957 -0.876133 -0.236701
  outer loop
  vertex 10.3746 -67.4041 124.53
  vertex -2.39557 -64.4006 136.07
  vertex 10.0155 -63.6059 111.109
  endloop
 endfacet

 facet normal 0.409621 -0.874853 -0.258538
  outer loop
  vertex 10.3746 -67.4041 124.53
  vertex 10.0155 -63.6059 111.109
  vertex 18.9324 -59.5773 111.604
  endloop
 endfacet

 facet normal 0.814397 -0.540153 0.212114
  outer loop
  vertex 18.9324 -59.5773 111.604
  vertex 13.3891 -61.1793 128.808
  vertex 10.3746 -67.4041 124.53
  endloop
 endfacet

 facet normal 0.115132 -0.993328 0.00667281
  outer loop
  vertex 2.42619 -42.2095 71.3273
  vertex 3.02192 -42.0289 87.9319
  vertex -10.9585 -43.6741 84.2316
  endloop
 endfacet

 facet normal 0.352762 -0.93571 -0.0024794
  outer loop
  vertex 2.42619 -42.2095 71.3273
  vertex 14.2679 -37.7701 80.7453
  vertex 3.02192 -42.0289 87.9319
  endloop
 endfacet

 facet normal 0.722003 -0.555194 0.412881
  outer loop
  vertex 13.159 -27.0164 97.1448
  vertex 14.2679 -37.7701 80.7453
  vertex 25.7399 -21.3909 82.7093
  endloop
 endfacet

 facet normal 0.812532 -0.216525 -0.54121
  outer loop
  vertex 8.51322 -44.5723 97.1937
  vertex 3.02192 -42.0289 87.9319
  vertex 13.159 -27.0164 97.1448
  endloop
 endfacet

 facet normal 0.503584 -0.709237 -0.493341
  outer loop
  vertex 8.51322 -44.5723 97.1937
  vertex -2.11658 -56.8562 104.003
  vertex 3.02192 -42.0289 87.9319
  endloop
 endfacet

 facet normal 0.561831 -0.673855 0.47986
  outer loop
  vertex 13.159 -27.0164 97.1448
  vertex 3.02192 -42.0289 87.9319
  vertex 14.2679 -37.7701 80.7453
  endloop
 endfacet

 facet normal 0.776237 -0.217962 0.591564
  outer loop
  vertex 13.159 -27.0164 97.1448
  vertex 25.7399 -21.3909 82.7093
  vertex 15.8851 -10.4443 99.6737
  endloop
 endfacet

 facet normal 0.825794 -0.112896 0.552556
  outer loop
  vertex 15.8851 -10.4443 99.6737
  vertex 25.7399 -21.3909 82.7093
  vertex 18.5001 3.06217 98.5253
  endloop
 endfacet

 facet normal 0.974422 -0.132605 -0.181433
  outer loop
  vertex 15.648 -17.787 103.767
  vertex 13.159 -27.0164 97.1448
  vertex 15.8851 -10.4443 99.6737
  endloop
 endfacet

 facet normal 0.963538 0.13638 0.230204
  outer loop
  vertex 18.5001 3.06217 98.5253
  vertex 25.7399 -21.3909 82.7093
  vertex 22.7865 1.77862 81.3443
  endloop
 endfacet

 facet normal 0.725553 -0.19384 -0.660302
  outer loop
  vertex 13.159 -27.0164 97.1448
  vertex 21.2386 -34.3284 108.169
  vertex 8.51322 -44.5723 97.1937
  endloop
 endfacet

 facet normal 0.841628 0.146064 -0.51993
  outer loop
  vertex 21.2386 -34.3284 108.169
  vertex 13.159 -27.0164 97.1448
  vertex 15.648 -17.787 103.767
  endloop
 endfacet

 facet normal 0.945792 0.272718 -0.176355
  outer loop
  vertex 21.7863 -24.6503 126.073
  vertex 21.2386 -34.3284 108.169
  vertex 15.648 -17.787 103.767
  endloop
 endfacet

 facet normal 0.963233 -0.08593 0.254557
  outer loop
  vertex 21.2386 -34.3284 108.169
  vertex 14.7948 -49.1108 127.562
  vertex 13.3891 -61.1793 128.808
  endloop
 endfacet

 facet normal 0.938828 -0.340361 0.0525066
  outer loop
  vertex 21.6838 -29.3787 132.295
  vertex 14.7948 -49.1108 127.562
  vertex 21.2386 -34.3284 108.169
  endloop
 endfacet

 facet normal 0.999285 -0.036157 -0.011021
  outer loop
  vertex 21.2386 -34.3284 108.169
  vertex 21.7863 -24.6503 126.073
  vertex 21.6838 -29.3787 132.295
  endloop
 endfacet

 facet normal 0.980335 0.0709747 0.184135
  outer loop
  vertex 15.8851 -10.4443 99.6737
  vertex 12.2027 -11.058 119.516
  vertex 15.648 -17.787 103.767
  endloop
 endfacet

 facet normal 0.967458 0.172744 0.184893
  outer loop
  vertex 12.2027 -11.058 119.516
  vertex 15.8851 -10.4443 99.6737
  vertex 11.182 -4.16751 118.418
  endloop
 endfacet

 facet normal 0.865821 0.497795 0.0505456
  outer loop
  vertex 11.182 -4.16751 118.418
  vertex 15.8851 -10.4443 99.6737
  vertex 7.38066 3.69246 106.126
  endloop
 endfacet

 facet normal 0.968267 0.172255 0.18107
  outer loop
  vertex 9.43627 -5.0352 128.579
  vertex 12.2027 -11.058 119.516
  vertex 11.182 -4.16751 118.418
  endloop
 endfacet

 facet normal 0.487507 0.858869 0.157103
  outer loop
  vertex 9.43627 -5.0352 128.579
  vertex 11.182 -4.16751 118.418
  vertex -5.29889 4.08692 124.434
  endloop
 endfacet

 facet normal -0.254219 -0.440723 -0.860892
  outer loop
  vertex -51.6707 17.7196 0.00402227
  vertex -43.5119 -0.753703 7.05195
  vertex -53.0175 7.96627 5.39486
  endloop
 endfacet

 facet normal -0.574787 -0.50077 -0.647186
  outer loop
  vertex -51.6707 17.7196 0.00402227
  vertex -37.6635 1.6453 0.00155344
  vertex -43.5119 -0.753703 7.05195
  endloop
 endfacet

 facet normal -0.93297 0.303382 -0.193718
  outer loop
  vertex -47.3449 35.5615 7.11279
  vertex -42.6652 45.411 -1.64007e-05
  vertex -51.6707 17.7196 0.00402227
  endloop
 endfacet

 facet normal -0.9997 -0.0131398 0.0206813
  outer loop
  vertex -47.1676 39.9468 18.4701
  vertex -47.3449 35.5615 7.11279
  vertex -46.7432 28.1096 31.4624
  endloop
 endfacet

 facet normal 0.775129 -0.186221 -0.603735
  outer loop
  vertex -29.8683 15.6487 5.69048
  vertex -33.6198 4.761 4.23219
  vertex -37.6635 1.6453 0.00155344
  endloop
 endfacet

 facet normal -0.369308 -0.231552 0.899997
  outer loop
  vertex -43.5119 -0.753703 7.05195
  vertex -36.765 17.3309 14.4733
  vertex -53.0175 7.96627 5.39486
  endloop
 endfacet

 facet normal 0.477427 -0.48011 0.735906
  outer loop
  vertex -33.6198 4.761 4.23219
  vertex -36.765 17.3309 14.4733
  vertex -43.5119 -0.753703 7.05195
  endloop
 endfacet

 facet normal 0.934543 -0.33723 0.113604
  outer loop
  vertex -30.6389 15.6519 12.0397
  vertex -33.6198 4.761 4.23219
  vertex -29.8683 15.6487 5.69048
  endloop
 endfacet

 facet normal -0.271131 -0.384776 0.88229
  outer loop
  vertex -38.6031 24.1036 16.8621
  vertex -53.0175 7.96627 5.39486
  vertex -36.765 17.3309 14.4733
  endloop
 endfacet

 facet normal -0.744086 -0.197222 -0.63831
  outer loop
  vertex -26.7051 7.94572 22.2424
  vertex -32.619 -5.22571 33.2059
  vertex -38.9632 6.3928 37.0115
  endloop
 endfacet

 facet normal -0.742459 -0.204943 -0.637772
  outer loop
  vertex -32.3035 18.7133 25.2997
  vertex -26.7051 7.94572 22.2424
  vertex -38.9632 6.3928 37.0115
  endloop
 endfacet

 facet normal -0.61011 -0.715566 -0.340191
  outer loop
  vertex -15.0789 3.83342 23.7851
  vertex -14.6428 10.4996 8.98116
  vertex -7.68478 1.21097 16.0403
  endloop
 endfacet

 facet normal 0.394948 -0.917146 -0.053481
  outer loop
  vertex -4.91279 11.2394 0.000221869
  vertex -2.19117 11.2795 19.412
  vertex -9.04406 9.01273 7.67692
  endloop
 endfacet

 facet normal 0.704797 -0.702696 -0.0973657
  outer loop
  vertex -2.19117 11.2795 19.412
  vertex -4.91279 11.2394 0.000221869
  vertex 5.50425 20.4231 9.12626
  endloop
 endfacet

 facet normal -0.796372 0.37308 0.476028
  outer loop
  vertex -53.0175 7.96627 5.39486
  vertex -38.6031 24.1036 16.8621
  vertex -51.6707 17.7196 0.00402227
  endloop
 endfacet

 facet normal -0.777615 -0.0608025 0.625793
  outer loop
  vertex -47.3449 35.5615 7.11279
  vertex -51.6707 17.7196 0.00402227
  vertex -38.6031 24.1036 16.8621
  endloop
 endfacet

 facet normal -0.927723 0.352853 -0.121761
  outer loop
  vertex -47.3449 35.5615 7.11279
  vertex -47.1676 39.9468 18.4701
  vertex -42.6652 45.411 -1.64007e-05
  endloop
 endfacet

 facet normal -0.703269 0.709876 0.0385745
  outer loop
  vertex -42.6652 45.411 -1.64007e-05
  vertex -47.1676 39.9468 18.4701
  vertex -32.4836 55.4013 1.77636
  endloop
 endfacet

 facet normal -0.769597 0.0430705 -0.637075
  outer loop
  vertex -43.5445 52.699 14.9555
  vertex -32.4836 55.4013 1.77636
  vertex -47.1676 39.9468 18.4701
  endloop
 endfacet

 facet normal -0.703612 0.655744 -0.273734
  outer loop
  vertex -28.0982 68.1646 12.3009
  vertex -25.8927 67.6779 5.46567
  vertex -43.5445 52.699 14.9555
  endloop
 endfacet

 facet normal -0.960631 0.277362 0.0160831
  outer loop
  vertex -42.5541 55.4248 27.1005
  vertex -43.5445 52.699 14.9555
  vertex -47.1676 39.9468 18.4701
  endloop
 endfacet

 facet normal -0.712503 0.694814 -0.0978426
  outer loop
  vertex -43.5445 52.699 14.9555
  vertex -42.5541 55.4248 27.1005
  vertex -28.0982 68.1646 12.3009
  endloop
 endfacet

 facet normal -0.509699 0.844725 0.163236
  outer loop
  vertex -17.7991 72.717 20.9017
  vertex -28.0982 68.1646 12.3009
  vertex -30.3803 62.549 34.2356
  endloop
 endfacet

 facet normal -0.563194 0.812694 0.14947
  outer loop
  vertex -30.3803 62.549 34.2356
  vertex -28.0982 68.1646 12.3009
  vertex -42.5541 55.4248 27.1005
  endloop
 endfacet

 facet normal -0.03436 0.996038 -0.0820181
  outer loop
  vertex -28.0982 68.1646 12.3009
  vertex 0.666606 68.5495 4.92372
  vertex -25.8927 67.6779 5.46567
  endloop
 endfacet

 facet normal 0.504766 0.802207 0.318866
  outer loop
  vertex -5.37264 66.5007 45.0926
  vertex 7.45182 68.4921 19.7813
  vertex -2.70175 70.8151 30.0101
  endloop
 endfacet

 facet normal -0.105599 0.925604 -0.363465
  outer loop
  vertex -28.0982 68.1646 12.3009
  vertex -17.7991 72.717 20.9017
  vertex 0.666606 68.5495 4.92372
  endloop
 endfacet

 facet normal -0.123319 0.916119 -0.38147
  outer loop
  vertex 0.666606 68.5495 4.92372
  vertex -17.7991 72.717 20.9017
  vertex -1.48367 72.0939 14.1309
  endloop
 endfacet

 facet normal -0.257706 0.682633 -0.683813
  outer loop
  vertex -7.50562 79.8042 24.0974
  vertex -1.48367 72.0939 14.1309
  vertex -17.7991 72.717 20.9017
  endloop
 endfacet

 facet normal 0.845941 0.52244 0.106963
  outer loop
  vertex -2.70175 70.8151 30.0101
  vertex -1.48367 72.0939 14.1309
  vertex -7.50562 79.8042 24.0974
  endloop
 endfacet

 facet normal -0.464908 0.299564 0.83314
  outer loop
  vertex -2.70175 70.8151 30.0101
  vertex -7.50562 79.8042 24.0974
  vertex -17.7991 72.717 20.9017
  endloop
 endfacet

 facet normal -0.866644 -0.421726 0.266599
  outer loop
  vertex -42.8621 27.2898 42.782
  vertex -50.1869 37.5353 35.1782
  vertex -46.7432 28.1096 31.4624
  endloop
 endfacet

 facet normal -0.85728 -0.305119 0.414697
  outer loop
  vertex -45.3422 36.1255 44.156
  vertex -50.1869 37.5353 35.1782
  vertex -42.8621 27.2898 42.782
  endloop
 endfacet

 facet normal -0.942297 -0.26222 -0.208129
  outer loop
  vertex -46.7432 28.1096 31.4624
  vertex -50.1869 37.5353 35.1782
  vertex -47.1676 39.9468 18.4701
  endloop
 endfacet

 facet normal -0.930706 0.244352 -0.272173
  outer loop
  vertex -32.3035 18.7133 25.2997
  vertex -38.9632 6.3928 37.0115
  vertex -37.0183 26.1356 48.0858
  endloop
 endfacet

 facet normal -0.37437 -0.901709 0.21626
  outer loop
  vertex -37.0183 26.1356 48.0858
  vertex -42.8621 27.2898 42.782
  vertex -32.3035 18.7133 25.2997
  endloop
 endfacet

 facet normal -0.983956 0.150591 -0.095668
  outer loop
  vertex -41.4845 -0.261225 52.4693
  vertex -37.0183 26.1356 48.0858
  vertex -38.9632 6.3928 37.0115
  endloop
 endfacet

 facet normal -0.931497 0.343835 -0.118704
  outer loop
  vertex -47.1676 39.9468 18.4701
  vertex -50.1869 37.5353 35.1782
  vertex -42.5541 55.4248 27.1005
  endloop
 endfacet

 facet normal -0.716696 0.51708 0.467948
  outer loop
  vertex -50.1869 37.5353 35.1782
  vertex -45.3422 36.1255 44.156
  vertex -42.5541 55.4248 27.1005
  endloop
 endfacet

 facet normal -0.673503 -0.294479 0.677994
  outer loop
  vertex -45.3422 36.1255 44.156
  vertex -42.8621 27.2898 42.782
  vertex -37.0183 26.1356 48.0858
  endloop
 endfacet

 facet normal -0.286367 0.134556 0.948625
  outer loop
  vertex -30.4322 49.3775 46.7773
  vertex -45.3422 36.1255 44.156
  vertex -37.0183 26.1356 48.0858
  endloop
 endfacet

 facet normal -0.917843 0.388378 0.0820144
  outer loop
  vertex -34.6447 11.1509 74.9723
  vertex -41.4845 -0.261225 52.4693
  vertex -39.2427 -1.83813 85.025
  endloop
 endfacet

 facet normal -0.964544 0.0862542 0.249429
  outer loop
  vertex -34.6447 11.1509 74.9723
  vertex -37.6387 19.4817 60.5139
  vertex -41.4845 -0.261225 52.4693
  endloop
 endfacet

 facet normal -0.983811 0.173746 0.0439163
  outer loop
  vertex -37.6387 19.4817 60.5139
  vertex -37.0183 26.1356 48.0858
  vertex -41.4845 -0.261225 52.4693
  endloop
 endfacet

 facet normal -0.772537 0.467709 0.429459
  outer loop
  vertex -34.6447 11.1509 74.9723
  vertex -27.793 29.9049 66.8733
  vertex -37.6387 19.4817 60.5139
  endloop
 endfacet

 facet normal -0.657721 0.488073 0.573749
  outer loop
  vertex -16.3638 22.8658 85.9632
  vertex -27.793 29.9049 66.8733
  vertex -34.6447 11.1509 74.9723
  endloop
 endfacet

 facet normal -0.776567 0.570748 0.266815
  outer loop
  vertex -27.793 29.9049 66.8733
  vertex -37.0183 26.1356 48.0858
  vertex -37.6387 19.4817 60.5139
  endloop
 endfacet

 facet normal -0.608483 0.528479 0.591996
  outer loop
  vertex -18.533 33.6995 73.0037
  vertex -30.4322 49.3775 46.7773
  vertex -27.793 29.9049 66.8733
  endloop
 endfacet

 facet normal -0.884259 0.27195 0.379643
  outer loop
  vertex -30.4322 49.3775 46.7773
  vertex -37.0183 26.1356 48.0858
  vertex -27.793 29.9049 66.8733
  endloop
 endfacet

 facet normal -0.69767 0.42958 0.57334
  outer loop
  vertex -30.4322 49.3775 46.7773
  vertex -18.533 33.6995 73.0037
  vertex -17.7343 55.3969 57.7187
  endloop
 endfacet

 facet normal -0.604775 0.558291 0.567942
  outer loop
  vertex -27.793 29.9049 66.8733
  vertex -16.3638 22.8658 85.9632
  vertex -18.533 33.6995 73.0037
  endloop
 endfacet

 facet normal -0.147983 0.573203 0.80594
  outer loop
  vertex 0.249359 27.1877 81.0838
  vertex -17.7343 55.3969 57.7187
  vertex -18.533 33.6995 73.0037
  endloop
 endfacet

 facet normal 0.0517097 0.656377 0.752659
  outer loop
  vertex -17.7343 55.3969 57.7187
  vertex 0.249359 27.1877 81.0838
  vertex 5.97637 49.8208 60.9525
  endloop
 endfacet

 facet normal -0.595528 0.555193 0.580609
  outer loop
  vertex -30.4322 49.3775 46.7773
  vertex -30.3803 62.549 34.2356
  vertex -45.3422 36.1255 44.156
  endloop
 endfacet

 facet normal -0.637706 0.559757 0.529153
  outer loop
  vertex -30.3803 62.549 34.2356
  vertex -42.5541 55.4248 27.1005
  vertex -45.3422 36.1255 44.156
  endloop
 endfacet

 facet normal -0.68884 0.501308 0.523632
  outer loop
  vertex -30.4322 49.3775 46.7773
  vertex -17.7343 55.3969 57.7187
  vertex -30.3803 62.549 34.2356
  endloop
 endfacet

 facet normal -0.303165 0.873778 0.380266
  outer loop
  vertex -17.7991 72.717 20.9017
  vertex -30.3803 62.549 34.2356
  vertex -5.37264 66.5007 45.0926
  endloop
 endfacet

 facet normal -0.319908 0.844513 0.429484
  outer loop
  vertex -30.3803 62.549 34.2356
  vertex -17.7343 55.3969 57.7187
  vertex -5.37264 66.5007 45.0926
  endloop
 endfacet

 facet normal -0.040533 0.962521 0.26816
  outer loop
  vertex -5.37264 66.5007 45.0926
  vertex -2.70175 70.8151 30.0101
  vertex -17.7991 72.717 20.9017
  endloop
 endfacet

 facet normal 0.0724514 0.712708 0.697709
  outer loop
  vertex -5.37264 66.5007 45.0926
  vertex -17.7343 55.3969 57.7187
  vertex 5.97637 49.8208 60.9525
  endloop
 endfacet

 facet normal -0.829129 0.49484 0.260149
  outer loop
  vertex -24.8848 15.8183 97.2003
  vertex -34.6447 11.1509 74.9723
  vertex -39.2427 -1.83813 85.025
  endloop
 endfacet

 facet normal -0.571191 0.816983 0.0792505
  outer loop
  vertex -34.6447 11.1509 74.9723
  vertex -24.8848 15.8183 97.2003
  vertex -16.3638 22.8658 85.9632
  endloop
 endfacet

 facet normal -0.830905 0.465667 0.30455
  outer loop
  vertex -24.8848 15.8183 97.2003
  vertex -39.2427 -1.83813 85.025
  vertex -37.3062 -5.3337 95.6531
  endloop
 endfacet

 facet normal -0.14106 0.883328 0.447027
  outer loop
  vertex -24.8848 15.8183 97.2003
  vertex 3.68692 21.5504 94.8896
  vertex -16.3638 22.8658 85.9632
  endloop
 endfacet

 facet normal -0.118713 0.908553 0.400548
  outer loop
  vertex 3.68692 21.5504 94.8896
  vertex 0.249359 27.1877 81.0838
  vertex -16.3638 22.8658 85.9632
  endloop
 endfacet

 facet normal -0.0106762 0.766303 0.64239
  outer loop
  vertex -16.3638 22.8658 85.9632
  vertex 0.249359 27.1877 81.0838
  vertex -18.533 33.6995 73.0037
  endloop
 endfacet

 facet normal -0.396333 0.424458 0.814098
  outer loop
  vertex -24.8848 15.8183 97.2003
  vertex -25.9407 -6.08958 108.109
  vertex -11.3622 10.3872 106.615
  endloop
 endfacet

 facet normal 0.333672 0.918705 0.21129
  outer loop
  vertex -5.29889 4.08692 124.434
  vertex 7.38066 3.69246 106.126
  vertex -11.3622 10.3872 106.615
  endloop
 endfacet

 facet normal -0.108391 0.785764 0.608954
  outer loop
  vertex -11.3622 10.3872 106.615
  vertex 3.68692 21.5504 94.8896
  vertex -24.8848 15.8183 97.2003
  endloop
 endfacet

 facet normal -0.705931 0.650084 0.281163
  outer loop
  vertex -25.9407 -6.08958 108.109
  vertex -17.372 -6.64562 130.908
  vertex -11.3622 10.3872 106.615
  endloop
 endfacet

 facet normal -0.459374 0.776704 0.430937
  outer loop
  vertex -5.29889 4.08692 124.434
  vertex -11.3622 10.3872 106.615
  vertex -17.372 -6.64562 130.908
  endloop
 endfacet

 facet normal -0.467138 -0.146927 -0.871891
  outer loop
  vertex 34.8815 11.7449 0.000365919
  vertex 26.3176 2.2169 6.19432
  vertex 18.4162 7.11221 9.60275
  endloop
 endfacet

 facet normal -0.935209 -0.271088 -0.227807
  outer loop
  vertex 9.35305 21.8392 10.0172
  vertex 11.7108 22.1233 2.07708e-05
  vertex 15.4232 9.29784 0.0217573
  endloop
 endfacet

 facet normal -0.840995 -0.521602 0.14373
  outer loop
  vertex 15.4232 9.29784 0.0217573
  vertex 18.4162 7.11221 9.60275
  vertex 9.35305 21.8392 10.0172
  endloop
 endfacet

 facet normal 0.863693 -0.466644 -0.19047
  outer loop
  vertex 38.2507 16.6407 3.28322
  vertex 34.4866 8.31079 6.62318
  vertex 34.8815 11.7449 0.000365919
  endloop
 endfacet

 facet normal 0.616838 0.0365225 0.786242
  outer loop
  vertex 26.6649 30.7132 11.719
  vertex 34.4866 8.31079 6.62318
  vertex 38.2507 16.6407 3.28322
  endloop
 endfacet

 facet normal 0.444038 0.267778 -0.855059
  outer loop
  vertex 31.7312 28.1059 3.48815
  vertex 38.2507 16.6407 3.28322
  vertex 34.8815 11.7449 0.000365919
  endloop
 endfacet

 facet normal 0.814804 0.456948 0.356781
  outer loop
  vertex 38.2507 16.6407 3.28322
  vertex 31.7312 28.1059 3.48815
  vertex 26.6649 30.7132 11.719
  endloop
 endfacet

 facet normal 0.820024 0.265933 -0.506794
  outer loop
  vertex 34.8815 11.7449 0.000365919
  vertex 21.7323 52.2907 1.78336e-05
  vertex 31.7312 28.1059 3.48815
  endloop
 endfacet

 facet normal 0.748649 0.219281 -0.625653
  outer loop
  vertex 21.7323 52.2907 1.78336e-05
  vertex 26.8481 43.9843 3.21021
  vertex 31.7312 28.1059 3.48815
  endloop
 endfacet

 facet normal 0.855707 0.270874 0.4409
  outer loop
  vertex 26.6649 30.7132 11.719
  vertex 31.7312 28.1059 3.48815
  vertex 26.8481 43.9843 3.21021
  endloop
 endfacet

 facet normal -0.360673 -0.247273 0.899317
  outer loop
  vertex 18.4162 7.11221 9.60275
  vertex 21.2325 18.9126 13.9768
  vertex 9.35305 21.8392 10.0172
  endloop
 endfacet

 facet normal -0.335852 -0.867816 0.366194
  outer loop
  vertex 18.2135 21.625 17.636
  vertex 9.35305 21.8392 10.0172
  vertex 21.2325 18.9126 13.9768
  endloop
 endfacet

 facet normal 0.858407 0.151426 -0.49011
  outer loop
  vertex 18.4332 0.0801403 35.7525
  vertex 10.7284 -1.95273 21.6298
  vertex 8.28613 10.0536 21.0618
  endloop
 endfacet

 facet normal 0.80069 -0.0629248 -0.595766
  outer loop
  vertex 18.4332 0.0801403 35.7525
  vertex 8.28613 10.0536 21.0618
  vertex 19.797 22.5272 35.2145
  endloop
 endfacet

 facet normal 0.195805 -0.327534 0.924328
  outer loop
  vertex 26.3176 2.2169 6.19432
  vertex 34.4866 8.31079 6.62318
  vertex 18.4162 7.11221 9.60275
  endloop
 endfacet

 facet normal 0.45911 -0.0415597 0.887407
  outer loop
  vertex 26.6649 30.7132 11.719
  vertex 21.2325 18.9126 13.9768
  vertex 34.4866 8.31079 6.62318
  endloop
 endfacet

 facet normal 0.873901 -0.27086 -0.403648
  outer loop
  vertex 26.6649 30.7132 11.719
  vertex 26.8481 43.9843 3.21021
  vertex 32.6457 39.5357 18.7473
  endloop
 endfacet

 facet normal 0.875999 -0.444271 -0.18775
  outer loop
  vertex 32.6457 39.5357 18.7473
  vertex 31.6151 30.1666 36.1088
  vertex 26.6649 30.7132 11.719
  endloop
 endfacet

 facet normal 0.927441 0.358635 0.105989
  outer loop
  vertex 30.8124 37.602 41.3326
  vertex 32.6457 39.5357 18.7473
  vertex 25.8133 55.4833 24.5714
  endloop
 endfacet

 facet normal 0.21856 0.926703 -0.305701
  outer loop
  vertex 0.666606 68.5495 4.92372
  vertex -1.48367 72.0939 14.1309
  vertex 8.71737 67.4429 7.32515
  endloop
 endfacet

 facet normal 0.393821 0.918428 -0.03735
  outer loop
  vertex 7.45182 68.4921 19.7813
  vertex 8.71737 67.4429 7.32515
  vertex -1.48367 72.0939 14.1309
  endloop
 endfacet

 facet normal 0.699904 0.714153 0.0109553
  outer loop
  vertex 7.45182 68.4921 19.7813
  vertex 22.4148 54.028 6.72342
  vertex 8.71737 67.4429 7.32515
  endloop
 endfacet

 facet normal 0.599348 0.780501 -0.177764
  outer loop
  vertex 7.45182 68.4921 19.7813
  vertex 25.8133 55.4833 24.5714
  vertex 22.4148 54.028 6.72342
  endloop
 endfacet

 facet normal 0.414006 0.866796 0.277963
  outer loop
  vertex 10.0768 60.5397 40.6705
  vertex 7.45182 68.4921 19.7813
  vertex -5.37264 66.5007 45.0926
  endloop
 endfacet

 facet normal 0.516381 0.819892 0.247242
  outer loop
  vertex 10.0768 60.5397 40.6705
  vertex 25.8133 55.4833 24.5714
  vertex 7.45182 68.4921 19.7813
  endloop
 endfacet

 facet normal 0.870203 0.452381 -0.195188
  outer loop
  vertex 32.6457 39.5357 18.7473
  vertex 26.8481 43.9843 3.21021
  vertex 22.4148 54.028 6.72342
  endloop
 endfacet

 facet normal 0.871255 0.447174 -0.20236
  outer loop
  vertex 32.6457 39.5357 18.7473
  vertex 22.4148 54.028 6.72342
  vertex 25.8133 55.4833 24.5714
  endloop
 endfacet

 facet normal 0.316786 0.943184 0.100254
  outer loop
  vertex -1.48367 72.0939 14.1309
  vertex -2.70175 70.8151 30.0101
  vertex 7.45182 68.4921 19.7813
  endloop
 endfacet

 facet normal 0.506156 0.803076 -0.314444
  outer loop
  vertex 18.4332 0.0801403 35.7525
  vertex 23.3899 6.08627 59.0706
  vertex 24.8491 -1.31745 42.5106
  endloop
 endfacet

 facet normal 0.979364 -0.0640954 -0.191672
  outer loop
  vertex 23.3899 6.08627 59.0706
  vertex 18.4332 0.0801403 35.7525
  vertex 19.797 22.5272 35.2145
  endloop
 endfacet

 facet normal 0.992283 0.0572686 -0.109977
  outer loop
  vertex 20.8374 27.648 47.2688
  vertex 23.3899 6.08627 59.0706
  vertex 19.797 22.5272 35.2145
  endloop
 endfacet

 facet normal 0.4419 0.0894824 0.89259
  outer loop
  vertex 20.8374 27.648 47.2688
  vertex 30.8124 37.602 41.3326
  vertex 15.445 37.3116 48.9697
  endloop
 endfacet

 facet normal 0.404052 0.389157 0.827828
  outer loop
  vertex 30.8124 37.602 41.3326
  vertex 10.0768 60.5397 40.6705
  vertex 15.445 37.3116 48.9697
  endloop
 endfacet

 facet normal 0.995243 0.0478117 0.0848808
  outer loop
  vertex 31.6151 30.1666 36.1088
  vertex 32.6457 39.5357 18.7473
  vertex 30.8124 37.602 41.3326
  endloop
 endfacet

 facet normal 0.711957 -0.3506 0.608438
  outer loop
  vertex 30.8124 37.602 41.3326
  vertex 20.8374 27.648 47.2688
  vertex 31.6151 30.1666 36.1088
  endloop
 endfacet

 facet normal 0.899828 0.286559 0.328928
  outer loop
  vertex 13.704 19.1016 74.2288
  vertex 23.3899 6.08627 59.0706
  vertex 20.8374 27.648 47.2688
  endloop
 endfacet

 facet normal 0.858194 0.499156 0.119781
  outer loop
  vertex 23.3899 6.08627 59.0706
  vertex 13.704 19.1016 74.2288
  vertex 22.7865 1.77862 81.3443
  endloop
 endfacet

 facet normal 0.760326 0.633576 0.143127
  outer loop
  vertex 22.7865 1.77862 81.3443
  vertex 29.201 -1.75925 62.9303
  vertex 23.3899 6.08627 59.0706
  endloop
 endfacet

 facet normal 0.842298 0.408022 0.352211
  outer loop
  vertex 15.445 37.3116 48.9697
  vertex 13.704 19.1016 74.2288
  vertex 20.8374 27.648 47.2688
  endloop
 endfacet

 facet normal 0.618648 0.61647 0.487072
  outer loop
  vertex 13.704 19.1016 74.2288
  vertex 15.445 37.3116 48.9697
  vertex 0.249359 27.1877 81.0838
  endloop
 endfacet

 facet normal 0.859617 0.200495 0.469957
  outer loop
  vertex 5.97637 49.8208 60.9525
  vertex 0.249359 27.1877 81.0838
  vertex 15.445 37.3116 48.9697
  endloop
 endfacet

 facet normal 0.655701 0.605761 0.450677
  outer loop
  vertex 10.0768 60.5397 40.6705
  vertex 30.8124 37.602 41.3326
  vertex 25.8133 55.4833 24.5714
  endloop
 endfacet

 facet normal 0.877164 0.328021 0.350693
  outer loop
  vertex 5.97637 49.8208 60.9525
  vertex 15.445 37.3116 48.9697
  vertex 10.0768 60.5397 40.6705
  endloop
 endfacet

 facet normal 0.432263 0.758223 0.488104
  outer loop
  vertex 5.97637 49.8208 60.9525
  vertex 10.0768 60.5397 40.6705
  vertex -5.37264 66.5007 45.0926
  endloop
 endfacet

 facet normal 0.894152 0.404085 0.192894
  outer loop
  vertex 22.7865 1.77862 81.3443
  vertex 14.1809 17.2989 88.7224
  vertex 18.5001 3.06217 98.5253
  endloop
 endfacet

 facet normal 0.544971 0.834053 0.0858054
  outer loop
  vertex 0.249359 27.1877 81.0838
  vertex 14.1809 17.2989 88.7224
  vertex 13.704 19.1016 74.2288
  endloop
 endfacet

 facet normal 0.477556 0.848609 0.227603
  outer loop
  vertex 14.1809 17.2989 88.7224
  vertex 0.249359 27.1877 81.0838
  vertex 3.68692 21.5504 94.8896
  endloop
 endfacet

 facet normal 0.880139 0.47377 0.0299661
  outer loop
  vertex 13.704 19.1016 74.2288
  vertex 14.1809 17.2989 88.7224
  vertex 22.7865 1.77862 81.3443
  endloop
 endfacet

 facet normal 0.574984 0.575124 0.581916
  outer loop
  vertex 18.5001 3.06217 98.5253
  vertex 14.1809 17.2989 88.7224
  vertex 3.68692 21.5504 94.8896
  endloop
 endfacet

 facet normal 0.218074 0.551647 0.805065
  outer loop
  vertex 3.68692 21.5504 94.8896
  vertex -11.3622 10.3872 106.615
  vertex 7.38066 3.69246 106.126
  endloop
 endfacet

 facet normal 0.497745 0.53331 0.683981
  outer loop
  vertex 18.5001 3.06217 98.5253
  vertex 3.68692 21.5504 94.8896
  vertex 7.38066 3.69246 106.126
  endloop
 endfacet

 facet normal 0.517588 0.784503 0.341553
  outer loop
  vertex 7.38066 3.69246 106.126
  vertex -5.29889 4.08692 124.434
  vertex 11.182 -4.16751 118.418
  endloop
 endfacet

 facet normal 0.56238 -0.0386495 0.825975
  outer loop
  vertex 7.38066 3.69246 106.126
  vertex 15.8851 -10.4443 99.6737
  vertex 18.5001 3.06217 98.5253
  endloop
 endfacet

 facet normal -0.346729 -0.767471 0.539229
  outer loop
  vertex -19.4779 -64.0019 125.653
  vertex -11.7325 -69.8218 122.351
  vertex -2.39557 -64.4006 136.07
  endloop
 endfacet

 facet normal 0.264149 -0.944855 0.193582
  outer loop
  vertex -11.7325 -69.8218 122.351
  vertex -6.63004 -68.7006 120.861
  vertex -2.39557 -64.4006 136.07
  endloop
 endfacet

 facet normal -0.482245 -0.408007 0.775223
  outer loop
  vertex -12.5746 -51.0181 136.781
  vertex -19.4779 -64.0019 125.653
  vertex -2.39557 -64.4006 136.07
  endloop
 endfacet

 facet normal -0.7911 -0.0969997 0.603947
  outer loop
  vertex -12.5746 -51.0181 136.781
  vertex -22.8545 -49.3662 123.581
  vertex -19.4779 -64.0019 125.653
  endloop
 endfacet

 facet normal -0.629029 -0.509651 0.587007
  outer loop
  vertex -7.96555 -52.7767 140.193
  vertex -12.5746 -51.0181 136.781
  vertex -2.39557 -64.4006 136.07
  endloop
 endfacet

 facet normal -0.316808 -0.448314 0.835851
  outer loop
  vertex -2.39557 -64.4006 136.07
  vertex 1.43329 -57.5868 141.176
  vertex -7.96555 -52.7767 140.193
  endloop
 endfacet

 facet normal -0.438412 -0.888703 0.134173
  outer loop
  vertex -7.96555 -52.7767 140.193
  vertex -22.2538 -44.9844 145.119
  vertex -12.5746 -51.0181 136.781
  endloop
 endfacet

 facet normal -0.148689 -0.70864 0.689726
  outer loop
  vertex -22.2538 -44.9844 145.119
  vertex -7.96555 -52.7767 140.193
  vertex -15.5376 -43.8864 147.695
  endloop
 endfacet

 facet normal 0.150384 -0.717951 0.679655
  outer loop
  vertex -7.96555 -52.7767 140.193
  vertex 3.46006 -52.3991 138.064
  vertex -6.14075 -43.7158 149.361
  endloop
 endfacet

 facet normal -0.945127 -0.307589 0.110111
  outer loop
  vertex -28.2476 -28.7955 134.754
  vertex -28.7615 -35.351 112.03
  vertex -22.8545 -49.3662 123.581
  endloop
 endfacet

 facet normal -0.999761 0.00358507 0.0215757
  outer loop
  vertex -28.2476 -28.7955 134.754
  vertex -28.4267 -21.8738 125.302
  vertex -28.7615 -35.351 112.03
  endloop
 endfacet

 facet normal -0.749741 -0.54058 -0.381656
  outer loop
  vertex -28.2476 -28.7955 134.754
  vertex -33.936 -22.1131 136.463
  vertex -28.4267 -21.8738 125.302
  endloop
 endfacet

 facet normal -0.951071 -0.296515 0.086852
  outer loop
  vertex -22.2538 -44.9844 145.119
  vertex -28.2476 -28.7955 134.754
  vertex -22.8545 -49.3662 123.581
  endloop
 endfacet

 facet normal -0.849758 0.0226152 0.526688
  outer loop
  vertex -22.2538 -44.9844 145.119
  vertex -23.4636 -19.9079 142.091
  vertex -28.2476 -28.7955 134.754
  endloop
 endfacet

 facet normal -0.331038 -0.488354 0.807419
  outer loop
  vertex -23.4636 -19.9079 142.091
  vertex -33.936 -22.1131 136.463
  vertex -28.2476 -28.7955 134.754
  endloop
 endfacet

 facet normal -0.393296 -0.898751 0.193817
  outer loop
  vertex -22.2538 -44.9844 145.119
  vertex -22.8545 -49.3662 123.581
  vertex -12.5746 -51.0181 136.781
  endloop
 endfacet

 facet normal -0.666275 0.619874 -0.414528
  outer loop
  vertex -22.0572 -11.4102 130.711
  vertex -28.4267 -21.8738 125.302
  vertex -30.8073 -8.85202 148.6
  endloop
 endfacet

 facet normal 0.13732 -0.982054 0.12928
  outer loop
  vertex -33.936 -22.1131 136.463
  vertex -23.4636 -19.9079 142.091
  vertex -36.7553 -20.9707 148.136
  endloop
 endfacet

 facet normal -0.770498 0.519661 -0.369168
  outer loop
  vertex -30.8073 -8.85202 148.6
  vertex -28.4267 -21.8738 125.302
  vertex -33.936 -22.1131 136.463
  endloop
 endfacet

 facet normal -0.865021 0.434195 -0.251423
  outer loop
  vertex -36.7553 -20.9707 148.136
  vertex -30.8073 -8.85202 148.6
  vertex -33.936 -22.1131 136.463
  endloop
 endfacet

 facet normal -0.0649358 0.982899 -0.172314
  outer loop
  vertex -22.0572 -11.4102 130.711
  vertex -30.8073 -8.85202 148.6
  vertex -14.3926 -9.22131 140.308
  endloop
 endfacet

 facet normal -0.665713 0.638616 0.385999
  outer loop
  vertex -17.372 -6.64562 130.908
  vertex -22.0572 -11.4102 130.711
  vertex -14.3926 -9.22131 140.308
  endloop
 endfacet

 facet normal -0.284747 0.709297 0.644839
  outer loop
  vertex -17.372 -6.64562 130.908
  vertex -9.65228 -12.027 140.236
  vertex -5.29889 4.08692 124.434
  endloop
 endfacet

 facet normal -0.174886 0.498642 0.848983
  outer loop
  vertex 4.85554 -6.97933 140.26
  vertex -9.65228 -12.027 140.236
  vertex -1.90312 -23.3872 148.505
  endloop
 endfacet

 facet normal 0.50879 0.857725 0.0737593
  outer loop
  vertex -17.372 -6.64562 130.908
  vertex -14.3926 -9.22131 140.308
  vertex -9.65228 -12.027 140.236
  endloop
 endfacet

 facet normal -0.248662 0.711591 0.657119
  outer loop
  vertex -5.29889 4.08692 124.434
  vertex -9.65228 -12.027 140.236
  vertex 4.85554 -6.97933 140.26
  endloop
 endfacet

 facet normal -0.661879 -0.228265 0.714011
  outer loop
  vertex -23.4636 -19.9079 142.091
  vertex -12.2624 -29.9278 149.271
  vertex -12.6654 -22.1358 151.388
  endloop
 endfacet

 facet normal 0.268033 -0.857825 0.438515
  outer loop
  vertex -34.2919 -15.2762 157.77
  vertex -36.7553 -20.9707 148.136
  vertex -23.4636 -19.9079 142.091
  endloop
 endfacet

 facet normal -0.141115 -0.971672 0.18958
  outer loop
  vertex -34.2919 -15.2762 157.77
  vertex -23.4636 -19.9079 142.091
  vertex -20.0289 -17.1061 159.008
  endloop
 endfacet

 facet normal -0.896777 0.441355 -0.0315728
  outer loop
  vertex -34.2919 -15.2762 157.77
  vertex -30.8073 -8.85202 148.6
  vertex -36.7553 -20.9707 148.136
  endloop
 endfacet

 facet normal -0.151945 -0.744869 0.649679
  outer loop
  vertex -31.6285 -8.97487 165.617
  vertex -34.2919 -15.2762 157.77
  vertex -20.0289 -17.1061 159.008
  endloop
 endfacet

 facet normal 0.0267874 0.999605 0.00850907
  outer loop
  vertex -30.8073 -8.85202 148.6
  vertex -31.6285 -8.97487 165.617
  vertex -14.3926 -9.22131 140.308
  endloop
 endfacet

 facet normal -0.901327 0.431254 -0.0403788
  outer loop
  vertex -30.8073 -8.85202 148.6
  vertex -34.2919 -15.2762 157.77
  vertex -31.6285 -8.97487 165.617
  endloop
 endfacet

 facet normal 0.670186 0.589706 0.450663
  outer loop
  vertex -31.6285 -8.97487 165.617
  vertex -20.0289 -17.1061 159.008
  vertex -14.3926 -9.22131 140.308
  endloop
 endfacet

 facet normal 0.457646 0.76148 0.45903
  outer loop
  vertex -14.3926 -9.22131 140.308
  vertex -20.0289 -17.1061 159.008
  vertex -9.65228 -12.027 140.236
  endloop
 endfacet

 facet normal 0.424433 -0.643371 0.637127
  outer loop
  vertex 13.3891 -61.1793 128.808
  vertex -2.39557 -64.4006 136.07
  vertex 10.3746 -67.4041 124.53
  endloop
 endfacet

 facet normal 0.680197 -0.00359285 0.733021
  outer loop
  vertex 3.46006 -52.3991 138.064
  vertex 13.3891 -61.1793 128.808
  vertex 14.7948 -49.1108 127.562
  endloop
 endfacet

 facet normal 0.900198 -0.420225 -0.11426
  outer loop
  vertex 1.43329 -57.5868 141.176
  vertex -2.39557 -64.4006 136.07
  vertex 3.46006 -52.3991 138.064
  endloop
 endfacet

 facet normal 0.451225 -0.865903 0.21589
  outer loop
  vertex 19.4697 -43.0886 141.946
  vertex 3.46006 -52.3991 138.064
  vertex 14.7948 -49.1108 127.562
  endloop
 endfacet

 facet normal 0.0448682 -0.773263 0.632496
  outer loop
  vertex 3.46006 -52.3991 138.064
  vertex 3.93431 -43.2973 149.158
  vertex -6.14075 -43.7158 149.361
  endloop
 endfacet

 facet normal 0.288526 -0.746235 0.599905
  outer loop
  vertex 19.4697 -43.0886 141.946
  vertex 3.93431 -43.2973 149.158
  vertex 3.46006 -52.3991 138.064
  endloop
 endfacet

 facet normal 0.940558 -0.283521 -0.186991
  outer loop
  vertex 19.4697 -43.0886 141.946
  vertex 14.7948 -49.1108 127.562
  vertex 21.6838 -29.3787 132.295
  endloop
 endfacet

 facet normal 0.917733 0.118625 0.379069
  outer loop
  vertex 21.6838 -29.3787 132.295
  vertex 16.2569 -17.3124 141.658
  vertex 19.4697 -43.0886 141.946
  endloop
 endfacet

 facet normal 0.720931 0.1863 -0.667496
  outer loop
  vertex 24.5262 -17.6714 130.98
  vertex 21.7863 -24.6503 126.073
  vertex 12.2027 -11.058 119.516
  endloop
 endfacet

 facet normal 0.967983 -0.207285 -0.141572
  outer loop
  vertex 21.6838 -29.3787 132.295
  vertex 21.7863 -24.6503 126.073
  vertex 27.9667 -11.0223 148.377
  endloop
 endfacet

 facet normal 0.730938 0.383523 -0.564482
  outer loop
  vertex 24.5262 -17.6714 130.98
  vertex 12.2027 -11.058 119.516
  vertex 17.1715 -5.33196 129.84
  endloop
 endfacet

 facet normal -0.364661 0.533636 0.763057
  outer loop
  vertex -1.90312 -23.3872 148.505
  vertex 6.39192 -20.592 150.514
  vertex 4.85554 -6.97933 140.26
  endloop
 endfacet

 facet normal -0.0966869 -0.636947 0.76482
  outer loop
  vertex 16.2569 -17.3124 141.658
  vertex 21.6838 -29.3787 132.295
  vertex 27.9667 -11.0223 148.377
  endloop
 endfacet

 facet normal 0.686775 -0.358903 0.632083
  outer loop
  vertex 6.39192 -20.592 150.514
  vertex 4.6876 -26.8435 148.816
  vertex 16.2569 -17.3124 141.658
  endloop
 endfacet

 facet normal 0.656757 0.737792 -0.155988
  outer loop
  vertex 19.266 -2.79707 150.648
  vertex 27.9667 -11.0223 148.377
  vertex 17.1715 -5.33196 129.84
  endloop
 endfacet

 facet normal 0.0104105 0.985708 0.168139
  outer loop
  vertex 17.1715 -5.33196 129.84
  vertex 9.43627 -5.0352 128.579
  vertex 4.85554 -6.97933 140.26
  endloop
 endfacet

 facet normal -0.212218 0.972387 -0.0970965
  outer loop
  vertex 17.1715 -5.33196 129.84
  vertex 4.85554 -6.97933 140.26
  vertex 19.266 -2.79707 150.648
  endloop
 endfacet

 facet normal 0.943027 -0.326979 -0.0615232
  outer loop
  vertex 27.9667 -11.0223 148.377
  vertex 21.7863 -24.6503 126.073
  vertex 24.5262 -17.6714 130.98
  endloop
 endfacet

 facet normal 0.821883 0.458665 -0.337838
  outer loop
  vertex 24.5262 -17.6714 130.98
  vertex 17.1715 -5.33196 129.84
  vertex 27.9667 -11.0223 148.377
  endloop
 endfacet

 facet normal -0.827982 0.274769 0.488822
  outer loop
  vertex 6.39192 -20.592 150.514
  vertex 13.4872 -16.0748 159.994
  vertex 4.85554 -6.97933 140.26
  endloop
 endfacet

 facet normal 0.410777 -0.903398 0.123024
  outer loop
  vertex 6.39192 -20.592 150.514
  vertex 16.2569 -17.3124 141.658
  vertex 13.4872 -16.0748 159.994
  endloop
 endfacet

 facet normal 0.323047 -0.903215 0.282564
  outer loop
  vertex 27.9667 -11.0223 148.377
  vertex 25.1536 -7.00842 164.423
  vertex 16.2569 -17.3124 141.658
  endloop
 endfacet

 facet normal 0.573531 -0.806941 0.141098
  outer loop
  vertex 25.1536 -7.00842 164.423
  vertex 13.4872 -16.0748 159.994
  vertex 16.2569 -17.3124 141.658
  endloop
 endfacet

 facet normal -0.826359 0.278137 0.489664
  outer loop
  vertex 13.4872 -16.0748 159.994
  vertex 20.1725 -5.02379 164.998
  vertex 4.85554 -6.97933 140.26
  endloop
 endfacet

 facet normal -0.382884 0.908902 0.16522
  outer loop
  vertex 19.266 -2.79707 150.648
  vertex 4.85554 -6.97933 140.26
  vertex 20.1725 -5.02379 164.998
  endloop
 endfacet

 facet normal -0.0481894 -0.387736 0.92051
  outer loop
  vertex 13.4872 -16.0748 159.994
  vertex 25.1536 -7.00842 164.423
  vertex 20.1725 -5.02379 164.998
  endloop
 endfacet

 facet normal -0.377404 -0.0994626 -0.920692
  outer loop
  vertex -42.7982 -29.9709 0.00623406
  vertex -38.5944 -45.8779 0.00145528
  vertex -48.4596 -39.7844 3.38705
  endloop
 endfacet

 facet normal 0.280531 -0.570352 -0.772011
  outer loop
  vertex -31.4633 -47.6706 3.91718
  vertex -38.5944 -45.8779 0.00145528
  vertex -24.8569 -43.7896 3.45053
  endloop
 endfacet

 facet normal 0.699158 -0.141914 0.700741
  outer loop
  vertex -31.2395 -43.1238 9.9536
  vertex -24.8569 -43.7896 3.45053
  vertex -25.3266 -33.6101 5.98069
  endloop
 endfacet

 facet normal 0.504245 -0.78453 0.360901
  outer loop
  vertex -32.3436 -33.434 20.0768
  vertex -24.9937 -31.0097 15.0776
  vertex -23.1328 -23.3365 29.1576
  endloop
 endfacet

 facet normal -0.445648 0.842798 -0.301811
  outer loop
  vertex -32.619 -5.22571 33.2059
  vertex -28.9349 -7.00498 22.7975
  vertex -40.0989 -10.0335 30.8251
  endloop
 endfacet

 facet normal 0.559017 -0.776965 -0.289525
  outer loop
  vertex -18.9329 -14.5137 28.3916
  vertex -20.9419 -13.8456 22.7195
  vertex -10.4243 -8.02478 27.4065
  endloop
 endfacet

 facet normal -0.737623 -0.11464 -0.665409
  outer loop
  vertex -7.68478 1.21097 16.0403
  vertex -14.0273 -7.60138 24.5894
  vertex -15.0789 3.83342 23.7851
  endloop
 endfacet

 facet normal 0.471273 -0.0186804 -0.88179
  outer loop
  vertex -15.0789 3.83342 23.7851
  vertex -14.0273 -7.60138 24.5894
  vertex -18.1953 -5.65364 22.3206
  endloop
 endfacet

 facet normal 0.16968 -0.746401 -0.643501
  outer loop
  vertex -14.0273 -7.60138 24.5894
  vertex -7.68478 1.21097 16.0403
  vertex -1.47179 -0.0267607 19.1143
  endloop
 endfacet

 facet normal 0.284783 -0.824949 -0.488218
  outer loop
  vertex -14.0273 -7.60138 24.5894
  vertex -1.47179 -0.0267607 19.1143
  vertex -10.4243 -8.02478 27.4065
  endloop
 endfacet

 facet normal 0.164837 -0.792827 -0.586731
  outer loop
  vertex -1.47179 -0.0267607 19.1143
  vertex 4.92247 -5.06139 27.7138
  vertex -10.4243 -8.02478 27.4065
  endloop
 endfacet

 facet normal 0.610443 -0.787717 0.0828327
  outer loop
  vertex -35.1468 -32.6978 47.7364
  vertex -32.3436 -33.434 20.0768
  vertex -24.5638 -25.5191 38.0108
  endloop
 endfacet

 facet normal 0.349337 -0.894214 -0.279902
  outer loop
  vertex -21.0332 -26.7681 46.4072
  vertex -35.1468 -32.6978 47.7364
  vertex -24.5638 -25.5191 38.0108
  endloop
 endfacet

 facet normal 0.819283 -0.406001 -0.404893
  outer loop
  vertex -19.32 -18.8017 41.8856
  vertex -21.0332 -26.7681 46.4072
  vertex -24.5638 -25.5191 38.0108
  endloop
 endfacet

 facet normal 0.572439 -0.786039 -0.233358
  outer loop
  vertex -18.9329 -14.5137 28.3916
  vertex -10.4243 -8.02478 27.4065
  vertex -19.32 -18.8017 41.8856
  endloop
 endfacet

 facet normal -0.190369 -0.0503195 -0.980422
  outer loop
  vertex 12.439 -39.6226 2.73368
  vertex 11.8239 -31.5707 2.43985
  vertex 27.1307 -41.9414 -9.72969e-06
  endloop
 endfacet

 facet normal -0.210392 -0.909075 -0.359607
  outer loop
  vertex 19.5139 -42.5035 5.87707
  vertex 12.439 -39.6226 2.73368
  vertex 27.1307 -41.9414 -9.72969e-06
  endloop
 endfacet

 facet normal -0.970965 -0.0823647 -0.224593
  outer loop
  vertex 10.0451 -25.39 7.86335
  vertex 11.8239 -31.5707 2.43985
  vertex 12.439 -39.6226 2.73368
  endloop
 endfacet

 facet normal 0.604762 -0.0886204 -0.791461
  outer loop
  vertex 27.1307 -41.9414 -9.72969e-06
  vertex 29.6816 -24.6813 0.0164869
  vertex 33.9453 -37.6996 4.73213
  endloop
 endfacet

 facet normal 0.931089 0.192769 -0.309698
  outer loop
  vertex 31.0245 -21.9149 5.77595
  vertex 33.9453 -37.6996 4.73213
  vertex 29.6816 -24.6813 0.0164869
  endloop
 endfacet

 facet normal 0.713614 0.55189 -0.431478
  outer loop
  vertex 31.0245 -21.9149 5.77595
  vertex 29.6816 -24.6813 0.0164869
  vertex 24.5936 -14.3018 4.87778
  endloop
 endfacet

 facet normal -0.852701 -0.29805 0.42903
  outer loop
  vertex 10.0451 -25.39 7.86335
  vertex 12.439 -39.6226 2.73368
  vertex 16.1493 -30.294 16.5885
  endloop
 endfacet

 facet normal -0.989523 -0.131971 -0.0585454
  outer loop
  vertex 7.47223 -18.5253 35.876
  vertex 8.34527 -16.66 16.9153
  vertex 10.0451 -25.39 7.86335
  endloop
 endfacet

 facet normal -0.395619 -0.889955 -0.226862
  outer loop
  vertex -1.47179 -0.0267607 19.1143
  vertex 6.72695 -4.40957 22.01
  vertex 4.92247 -5.06139 27.7138
  endloop
 endfacet

 facet normal -0.922411 -0.312369 -0.227118
  outer loop
  vertex 4.92247 -5.06139 27.7138
  vertex 7.96008 -9.87003 21.9905
  vertex 7.47223 -18.5253 35.876
  endloop
 endfacet

 facet normal -0.925515 -0.207883 -0.316555
  outer loop
  vertex 4.92247 -5.06139 27.7138
  vertex 6.72695 -4.40957 22.01
  vertex 7.96008 -9.87003 21.9905
  endloop
 endfacet

 facet normal 0.587881 0.788148 -0.182263
  outer loop
  vertex 27.3083 -12.653 20.7634
  vertex 24.5936 -14.3018 4.87778
  vertex 15.8687 -3.74316 22.3939
  endloop
 endfacet

 facet normal 0.353694 0.879101 -0.319503
  outer loop
  vertex 18.4332 0.0801403 35.7525
  vertex 15.8687 -3.74316 22.3939
  vertex 10.7284 -1.95273 21.6298
  endloop
 endfacet

 facet normal 0.952048 -0.0458098 0.3025
  outer loop
  vertex 18.9324 -59.5773 111.604
  vertex 21.2386 -34.3284 108.169
  vertex 13.3891 -61.1793 128.808
  endloop
 endfacet

 facet normal 0.828637 0.55691 -0.0566728
  outer loop
  vertex 15.648 -17.787 103.767
  vertex 12.2027 -11.058 119.516
  vertex 21.7863 -24.6503 126.073
  endloop
 endfacet

 facet normal 0.511665 -0.848393 0.135751
  outer loop
  vertex -33.6198 4.761 4.23219
  vertex -43.5119 -0.753703 7.05195
  vertex -37.6635 1.6453 0.00155344
  endloop
 endfacet

 facet normal 0.146521 -0.602526 0.784534
  outer loop
  vertex -36.765 17.3309 14.4733
  vertex -33.6198 4.761 4.23219
  vertex -30.6389 15.6519 12.0397
  endloop
 endfacet

 facet normal -0.605462 -0.330714 -0.723909
  outer loop
  vertex -23.8386 1.55104 22.7663
  vertex -32.619 -5.22571 33.2059
  vertex -26.7051 7.94572 22.2424
  endloop
 endfacet

 facet normal -0.641468 -0.767069 -0.011108
  outer loop
  vertex -42.8621 27.2898 42.782
  vertex -38.6031 24.1036 16.8621
  vertex -32.3035 18.7133 25.2997
  endloop
 endfacet

 facet normal -0.887614 -0.393564 -0.239266
  outer loop
  vertex -32.3035 18.7133 25.2997
  vertex -28.0897 14.9389 15.876
  vertex -26.7051 7.94572 22.2424
  endloop
 endfacet

 facet normal -0.656626 -0.754169 0.00845094
  outer loop
  vertex -32.3035 18.7133 25.2997
  vertex -38.6031 24.1036 16.8621
  vertex -28.0897 14.9389 15.876
  endloop
 endfacet

 facet normal -0.420463 -0.793756 -0.439503
  outer loop
  vertex -23.0797 9.88862 18.156
  vertex -21.9875 16.7755 4.67317
  vertex -14.6428 10.4996 8.98116
  endloop
 endfacet

 facet normal -0.333072 -0.715875 -0.613666
  outer loop
  vertex -9.04406 9.01273 7.67692
  vertex -7.68478 1.21097 16.0403
  vertex -14.6428 10.4996 8.98116
  endloop
 endfacet

 facet normal 0.844584 -0.31611 -0.432148
  outer loop
  vertex -7.68478 1.21097 16.0403
  vertex -9.04406 9.01273 7.67692
  vertex -2.19117 11.2795 19.412
  endloop
 endfacet

 facet normal 0.451175 0.05217 -0.890909
  outer loop
  vertex -1.47179 -0.0267607 19.1143
  vertex -7.68478 1.21097 16.0403
  vertex -2.19117 11.2795 19.412
  endloop
 endfacet

 facet normal -0.364301 -0.845096 -0.391277
  outer loop
  vertex -15.0789 3.83342 23.7851
  vertex -23.0797 9.88862 18.156
  vertex -14.6428 10.4996 8.98116
  endloop
 endfacet

 facet normal -0.692384 -0.694552 -0.195451
  outer loop
  vertex -46.7432 28.1096 31.4624
  vertex -47.3449 35.5615 7.11279
  vertex -38.6031 24.1036 16.8621
  endloop
 endfacet

 facet normal -0.702857 0.522419 -0.482773
  outer loop
  vertex -43.5445 52.699 14.9555
  vertex -25.8927 67.6779 5.46567
  vertex -32.4836 55.4013 1.77636
  endloop
 endfacet

 facet normal -0.0375866 0.704981 -0.708229
  outer loop
  vertex -9.37556 64.7258 1.65056
  vertex -25.8927 67.6779 5.46567
  vertex 0.666606 68.5495 4.92372
  endloop
 endfacet

 facet normal 0.571745 -0.741775 -0.350538
  outer loop
  vertex 34.4866 8.31079 6.62318
  vertex 26.3176 2.2169 6.19432
  vertex 34.8815 11.7449 0.000365919
  endloop
 endfacet

 facet normal 0.362646 -0.814543 -0.452778
  outer loop
  vertex 5.50425 20.4231 9.12626
  vertex 11.5498 17.3787 19.4452
  vertex -2.19117 11.2795 19.412
  endloop
 endfacet

 facet normal 0.159812 0.038401 -0.9864
  outer loop
  vertex 8.28613 10.0536 21.0618
  vertex 5.5768 0.868764 20.2652
  vertex -2.19117 11.2795 19.412
  endloop
 endfacet

 facet normal 0.845815 -0.442583 -0.297855
  outer loop
  vertex 8.28613 10.0536 21.0618
  vertex 11.5498 17.3787 19.4452
  vertex 19.797 22.5272 35.2145
  endloop
 endfacet

 facet normal 0.195943 -0.381601 0.90332
  outer loop
  vertex 18.4162 7.11221 9.60275
  vertex 34.4866 8.31079 6.62318
  vertex 21.2325 18.9126 13.9768
  endloop
 endfacet

 facet normal 0.687854 -0.182221 0.702604
  outer loop
  vertex 18.2135 21.625 17.636
  vertex 21.2325 18.9126 13.9768
  vertex 26.6649 30.7132 11.719
  endloop
 endfacet

 facet normal 0.604396 -0.784243 -0.140245
  outer loop
  vertex 31.6151 30.1666 36.1088
  vertex 22.0003 25.2557 22.1347
  vertex 26.6649 30.7132 11.719
  endloop
 endfacet

 facet normal 0.461893 0.846249 -0.265551
  outer loop
  vertex 13.8046 57.2454 2.00002
  vertex 22.4148 54.028 6.72342
  vertex 21.7323 52.2907 1.78336e-05
  endloop
 endfacet

 facet normal 0.547017 0.58538 -0.598416
  outer loop
  vertex 22.4148 54.028 6.72342
  vertex 13.8046 57.2454 2.00002
  vertex 8.71737 67.4429 7.32515
  endloop
 endfacet

 facet normal 0.86677 0.454442 -0.205409
  outer loop
  vertex 21.7323 52.2907 1.78336e-05
  vertex 22.4148 54.028 6.72342
  vertex 26.8481 43.9843 3.21021
  endloop
 endfacet

 facet normal 0.50147 -0.811032 0.301255
  outer loop
  vertex 19.797 22.5272 35.2145
  vertex 31.6151 30.1666 36.1088
  vertex 20.8374 27.648 47.2688
  endloop
 endfacet

 facet normal 0.147202 0.465842 0.872538
  outer loop
  vertex 1.43329 -57.5868 141.176
  vertex 3.46006 -52.3991 138.064
  vertex -7.96555 -52.7767 140.193
  endloop
 endfacet

 facet normal -0.113205 -0.695307 0.709741
  outer loop
  vertex -7.96555 -52.7767 140.193
  vertex -6.14075 -43.7158 149.361
  vertex -15.5376 -43.8864 147.695
  endloop
 endfacet

 facet normal -0.484985 0.0817603 0.870692
  outer loop
  vertex -23.4636 -19.9079 142.091
  vertex -22.2538 -44.9844 145.119
  vertex -12.2624 -29.9278 149.271
  endloop
 endfacet

 facet normal -0.37941 -0.897292 0.225643
  outer loop
  vertex -12.6654 -22.1358 151.388
  vertex -20.0289 -17.1061 159.008
  vertex -23.4636 -19.9079 142.091
  endloop
 endfacet

 facet normal 0.77838 0.345925 0.52389
  outer loop
  vertex -12.6654 -22.1358 151.388
  vertex -9.65228 -12.027 140.236
  vertex -20.0289 -17.1061 159.008
  endloop
 endfacet

 facet normal 0.262674 0.678507 0.686026
  outer loop
  vertex -1.90312 -23.3872 148.505
  vertex -9.65228 -12.027 140.236
  vertex -12.6654 -22.1358 151.388
  endloop
 endfacet

 facet normal 0.449571 -0.355511 0.819449
  outer loop
  vertex 13.3891 -61.1793 128.808
  vertex 3.46006 -52.3991 138.064
  vertex -2.39557 -64.4006 136.07
  endloop
 endfacet

 facet normal 0.435362 0.844714 0.311318
  outer loop
  vertex -5.29889 4.08692 124.434
  vertex 4.85554 -6.97933 140.26
  vertex 9.43627 -5.0352 128.579
  endloop
 endfacet

 facet normal 0.117825 0.843282 -0.524398
  outer loop
  vertex 12.2027 -11.058 119.516
  vertex 9.43627 -5.0352 128.579
  vertex 17.1715 -5.33196 129.84
  endloop
 endfacet

 facet normal -0.159782 -0.217931 0.962796
  outer loop
  vertex 4.6876 -26.8435 148.816
  vertex 6.39192 -20.592 150.514
  vertex -1.90312 -23.3872 148.505
  endloop
 endfacet

 facet normal 0.676529 0.733551 -0.064893
  outer loop
  vertex 19.266 -2.79707 150.648
  vertex 25.1536 -7.00842 164.423
  vertex 27.9667 -11.0223 148.377
  endloop
 endfacet

 facet normal 0.379299 0.917663 0.118434
  outer loop
  vertex 20.1725 -5.02379 164.998
  vertex 25.1536 -7.00842 164.423
  vertex 19.266 -2.79707 150.648
  endloop
 endfacet

 facet normal 0.734519 0.195411 -0.649843
  outer loop
  vertex -24.8569 -43.7896 3.45053
  vertex -31.3973 -30.6554 0.00738799
  vertex -25.3266 -33.6101 5.98069
  endloop
 endfacet

 facet normal 0.0285273 0.473681 -0.880234
  outer loop
  vertex -31.2619 -18.3764 6.61947
  vertex -31.3973 -30.6554 0.00738799
  vertex -42.7982 -29.9709 0.00623406
  endloop
 endfacet

 facet normal -0.019797 0.510143 -0.859862
  outer loop
  vertex -42.7982 -29.9709 0.00623406
  vertex -37.9394 -17.2259 7.45577
  vertex -31.2619 -18.3764 6.61947
  endloop
 endfacet

 facet normal 0.556079 0.389291 -0.734322
  outer loop
  vertex -31.2619 -18.3764 6.61947
  vertex -27.4074 -21.3451 7.96456
  vertex -31.3973 -30.6554 0.00738799
  endloop
 endfacet

 facet normal 0.738091 0.247911 -0.627504
  outer loop
  vertex -23.9876 -23.6363 11.496
  vertex -25.3266 -33.6101 5.98069
  vertex -31.3973 -30.6554 0.00738799
  endloop
 endfacet

 facet normal 0.764983 0.196397 -0.613375
  outer loop
  vertex -23.9876 -23.6363 11.496
  vertex -31.3973 -30.6554 0.00738799
  vertex -27.4074 -21.3451 7.96456
  endloop
 endfacet

 facet normal 0.990952 -0.134198 0.00210493
  outer loop
  vertex -24.9937 -31.0097 15.0776
  vertex -25.3266 -33.6101 5.98069
  vertex -23.9876 -23.6363 11.496
  endloop
 endfacet

 facet normal 0.966388 -0.206352 -0.153342
  outer loop
  vertex -24.9937 -31.0097 15.0776
  vertex -23.9876 -23.6363 11.496
  vertex -22.3401 -21.6504 19.2062
  endloop
 endfacet

 facet normal 0.958363 -0.284158 0.0281938
  outer loop
  vertex -23.1328 -23.3365 29.1576
  vertex -24.9937 -31.0097 15.0776
  vertex -22.3401 -21.6504 19.2062
  endloop
 endfacet

 facet normal 0.0657523 0.807623 -0.586022
  outer loop
  vertex -28.5574 -11.396 16.5429
  vertex -31.2619 -18.3764 6.61947
  vertex -37.9394 -17.2259 7.45577
  endloop
 endfacet

 facet normal 0.0453288 0.818887 -0.572163
  outer loop
  vertex -28.9349 -7.00498 22.7975
  vertex -28.5574 -11.396 16.5429
  vertex -37.9394 -17.2259 7.45577
  endloop
 endfacet

 facet normal -0.445062 0.843493 -0.300733
  outer loop
  vertex -37.9394 -17.2259 7.45577
  vertex -40.0989 -10.0335 30.8251
  vertex -28.9349 -7.00498 22.7975
  endloop
 endfacet

 facet normal 0.165673 0.811808 -0.559929
  outer loop
  vertex -28.9349 -7.00498 22.7975
  vertex -23.4544 -9.68009 20.5406
  vertex -28.5574 -11.396 16.5429
  endloop
 endfacet

 facet normal -0.300407 0.175512 -0.937524
  outer loop
  vertex -23.8386 1.55104 22.7663
  vertex -23.4544 -9.68009 20.5406
  vertex -28.9349 -7.00498 22.7975
  endloop
 endfacet

 facet normal -0.800569 0.475519 -0.364652
  outer loop
  vertex -32.619 -5.22571 33.2059
  vertex -23.8386 1.55104 22.7663
  vertex -28.9349 -7.00498 22.7975
  endloop
 endfacet

 facet normal 0.979637 -0.195699 0.0448767
  outer loop
  vertex -23.1328 -23.3365 29.1576
  vertex -22.3401 -21.6504 19.2062
  vertex -20.9419 -13.8456 22.7195
  endloop
 endfacet

 facet normal 0.83508 -0.427576 -0.34615
  outer loop
  vertex -23.1328 -23.3365 29.1576
  vertex -20.9419 -13.8456 22.7195
  vertex -18.9329 -14.5137 28.3916
  endloop
 endfacet

 facet normal 0.442823 -0.191134 -0.876
  outer loop
  vertex -23.4544 -9.68009 20.5406
  vertex -18.1953 -5.65364 22.3206
  vertex -20.9419 -13.8456 22.7195
  endloop
 endfacet

 facet normal 0.404416 -0.179272 -0.896833
  outer loop
  vertex -20.9419 -13.8456 22.7195
  vertex -18.1953 -5.65364 22.3206
  vertex -14.0273 -7.60138 24.5894
  endloop
 endfacet

 facet normal 0.175514 0.197146 -0.964535
  outer loop
  vertex -23.8386 1.55104 22.7663
  vertex -18.1953 -5.65364 22.3206
  vertex -23.4544 -9.68009 20.5406
  endloop
 endfacet

 facet normal 0.0822696 0.125601 -0.988664
  outer loop
  vertex -18.1953 -5.65364 22.3206
  vertex -23.8386 1.55104 22.7663
  vertex -15.0789 3.83342 23.7851
  endloop
 endfacet

 facet normal 0.542836 -0.376277 -0.750829
  outer loop
  vertex -20.9419 -13.8456 22.7195
  vertex -14.0273 -7.60138 24.5894
  vertex -10.4243 -8.02478 27.4065
  endloop
 endfacet

 facet normal 0.755499 -0.653982 -0.0391138
  outer loop
  vertex -24.5638 -25.5191 38.0108
  vertex -32.3436 -33.434 20.0768
  vertex -23.1328 -23.3365 29.1576
  endloop
 endfacet

 facet normal 0.903535 -0.426561 0.0408812
  outer loop
  vertex -23.1328 -23.3365 29.1576
  vertex -18.9329 -14.5137 28.3916
  vertex -24.5638 -25.5191 38.0108
  endloop
 endfacet

 facet normal 0.81972 -0.552236 -0.151969
  outer loop
  vertex -19.32 -18.8017 41.8856
  vertex -24.5638 -25.5191 38.0108
  vertex -18.9329 -14.5137 28.3916
  endloop
 endfacet

 facet normal -0.882908 0.139358 -0.448389
  outer loop
  vertex 10.0451 -25.39 7.86335
  vertex 12.1912 -19.1348 5.58164
  vertex 11.8239 -31.5707 2.43985
  endloop
 endfacet

 facet normal -0.767227 0.178309 -0.616092
  outer loop
  vertex 15.0607 -26.0682 0.00153372
  vertex 11.8239 -31.5707 2.43985
  vertex 12.1912 -19.1348 5.58164
  endloop
 endfacet

 facet normal -0.503611 0.405517 -0.762845
  outer loop
  vertex 15.0607 -26.0682 0.00153372
  vertex 12.1912 -19.1348 5.58164
  vertex 19.0854 -21.0462 0.0142145
  endloop
 endfacet

 facet normal -0.451501 0.508037 -0.733515
  outer loop
  vertex 12.1912 -19.1348 5.58164
  vertex 18.0265 -14.7553 5.02314
  vertex 19.0854 -21.0462 0.0142145
  endloop
 endfacet

 facet normal -0.509918 0.600918 -0.615532
  outer loop
  vertex 11.872 -8.01439 16.7024
  vertex 18.0265 -14.7553 5.02314
  vertex 12.1912 -19.1348 5.58164
  endloop
 endfacet

 facet normal -0.0599021 0.615577 -0.785797
  outer loop
  vertex 19.0854 -21.0462 0.0142145
  vertex 18.0265 -14.7553 5.02314
  vertex 24.5936 -14.3018 4.87778
  endloop
 endfacet

 facet normal -0.917284 0.186327 -0.351955
  outer loop
  vertex 8.34527 -16.66 16.9153
  vertex 12.1912 -19.1348 5.58164
  vertex 10.0451 -25.39 7.86335
  endloop
 endfacet

 facet normal -0.0701701 0.847506 -0.526127
  outer loop
  vertex 24.5936 -14.3018 4.87778
  vertex 18.0265 -14.7553 5.02314
  vertex 11.872 -8.01439 16.7024
  endloop
 endfacet

 facet normal -0.998631 -0.0207567 -0.0480237
  outer loop
  vertex 8.34527 -16.66 16.9153
  vertex 7.47223 -18.5253 35.876
  vertex 7.96008 -9.87003 21.9905
  endloop
 endfacet

 facet normal -0.811983 0.319194 -0.48867
  outer loop
  vertex 11.872 -8.01439 16.7024
  vertex 8.34527 -16.66 16.9153
  vertex 7.96008 -9.87003 21.9905
  endloop
 endfacet

 facet normal -0.762758 -0.170035 -0.623929
  outer loop
  vertex 11.872 -8.01439 16.7024
  vertex 7.96008 -9.87003 21.9905
  vertex 6.72695 -4.40957 22.01
  endloop
 endfacet

 facet normal 0.188564 -0.270927 -0.943951
  outer loop
  vertex 6.72695 -4.40957 22.01
  vertex -1.47179 -0.0267607 19.1143
  vertex 5.5768 0.868764 20.2652
  endloop
 endfacet

 facet normal -0.397833 0.532343 -0.747221
  outer loop
  vertex 10.7284 -1.95273 21.6298
  vertex 11.872 -8.01439 16.7024
  vertex 6.72695 -4.40957 22.01
  endloop
 endfacet

 facet normal 0.0905738 -0.294703 -0.951287
  outer loop
  vertex 10.7284 -1.95273 21.6298
  vertex 6.72695 -4.40957 22.01
  vertex 5.5768 0.868764 20.2652
  endloop
 endfacet

 facet normal -0.101949 0.828706 -0.55032
  outer loop
  vertex 24.5936 -14.3018 4.87778
  vertex 11.872 -8.01439 16.7024
  vertex 15.8687 -3.74316 22.3939
  endloop
 endfacet

 facet normal 0.324869 0.632707 -0.702952
  outer loop
  vertex 11.872 -8.01439 16.7024
  vertex 10.7284 -1.95273 21.6298
  vertex 15.8687 -3.74316 22.3939
  endloop
 endfacet

 facet normal 0.143793 -0.989445 0.0179493
  outer loop
  vertex -30.6389 15.6519 12.0397
  vertex -29.8683 15.6487 5.69048
  vertex -21.9875 16.7755 4.67317
  endloop
 endfacet

 facet normal 0.0828735 -0.921703 -0.378941
  outer loop
  vertex -24.3642 18.4831 0
  vertex -21.9875 16.7755 4.67317
  vertex -29.8683 15.6487 5.69048
  endloop
 endfacet

 facet normal -0.317296 -0.875882 -0.36353
  outer loop
  vertex -14.6428 10.4996 8.98116
  vertex -10.9435 12.8416 0.109641
  vertex -9.04406 9.01273 7.67692
  endloop
 endfacet

 facet normal -0.243157 -0.888726 -0.388639
  outer loop
  vertex -10.9435 12.8416 0.109641
  vertex -4.91279 11.2394 0.000221869
  vertex -9.04406 9.01273 7.67692
  endloop
 endfacet

 facet normal 0.247004 0.944529 -0.216457
  outer loop
  vertex -4.91279 11.2394 0.000221869
  vertex -10.9435 12.8416 0.109641
  vertex -21.9875 16.7755 4.67317
  endloop
 endfacet

 facet normal -0.344332 -0.924635 -0.162744
  outer loop
  vertex -24.3642 18.4831 0
  vertex -4.91279 11.2394 0.000221869
  vertex -21.9875 16.7755 4.67317
  endloop
 endfacet

 facet normal -0.449446 -0.79951 -0.398473
  outer loop
  vertex -21.9875 16.7755 4.67317
  vertex -10.9435 12.8416 0.109641
  vertex -14.6428 10.4996 8.98116
  endloop
 endfacet

 facet normal -0.0178478 -0.985071 -0.171219
  outer loop
  vertex -28.0897 14.9389 15.876
  vertex -30.6389 15.6519 12.0397
  vertex -21.9875 16.7755 4.67317
  endloop
 endfacet

 facet normal -0.265379 -0.96414 -0.00284387
  outer loop
  vertex -30.6389 15.6519 12.0397
  vertex -28.0897 14.9389 15.876
  vertex -36.765 17.3309 14.4733
  endloop
 endfacet

 facet normal -0.544667 -0.728168 -0.416063
  outer loop
  vertex -28.0897 14.9389 15.876
  vertex -21.9875 16.7755 4.67317
  vertex -23.0797 9.88862 18.156
  endloop
 endfacet

 facet normal -0.249132 -0.381572 0.890133
  outer loop
  vertex -28.0897 14.9389 15.876
  vertex -38.6031 24.1036 16.8621
  vertex -36.765 17.3309 14.4733
  endloop
 endfacet

 facet normal -0.619613 -0.335869 -0.709416
  outer loop
  vertex -26.7051 7.94572 22.2424
  vertex -23.0797 9.88862 18.156
  vertex -23.8386 1.55104 22.7663
  endloop
 endfacet

 facet normal -0.374288 -0.663691 -0.647629
  outer loop
  vertex -23.0797 9.88862 18.156
  vertex -26.7051 7.94572 22.2424
  vertex -28.0897 14.9389 15.876
  endloop
 endfacet

 facet normal 0.225066 -0.487092 -0.843852
  outer loop
  vertex -23.8386 1.55104 22.7663
  vertex -23.0797 9.88862 18.156
  vertex -15.0789 3.83342 23.7851
  endloop
 endfacet

 facet normal -0.249232 0.39899 -0.882435
  outer loop
  vertex -25.8927 67.6779 5.46567
  vertex -16.8671 61.2288 0.000586402
  vertex -32.4836 55.4013 1.77636
  endloop
 endfacet

 facet normal -0.0865917 0.570763 -0.816536
  outer loop
  vertex -16.8671 61.2288 0.000586402
  vertex -25.8927 67.6779 5.46567
  vertex -9.37556 64.7258 1.65056
  endloop
 endfacet

 facet normal 0.447971 -0.693377 -0.564403
  outer loop
  vertex -9.37556 64.7258 1.65056
  vertex 0.666606 68.5495 4.92372
  vertex -16.8671 61.2288 0.000586402
  endloop
 endfacet

 facet normal -0.358869 -0.931732 0.0555688
  outer loop
  vertex -46.7432 28.1096 31.4624
  vertex -38.6031 24.1036 16.8621
  vertex -42.8621 27.2898 42.782
  endloop
 endfacet

 facet normal 0.142027 -0.774124 0.616895
  outer loop
  vertex 5.50425 20.4231 9.12626
  vertex -4.91279 11.2394 0.000221869
  vertex 9.35305 21.8392 10.0172
  endloop
 endfacet

 facet normal 0.544757 -0.832041 0.104629
  outer loop
  vertex -4.91279 11.2394 0.000221869
  vertex 11.7108 22.1233 2.07708e-05
  vertex 9.35305 21.8392 10.0172
  endloop
 endfacet

 facet normal 0.398539 -0.789668 -0.466468
  outer loop
  vertex 9.35305 21.8392 10.0172
  vertex 11.5498 17.3787 19.4452
  vertex 5.50425 20.4231 9.12626
  endloop
 endfacet

 facet normal 0.3818 -0.797898 -0.466462
  outer loop
  vertex 11.5498 17.3787 19.4452
  vertex 9.35305 21.8392 10.0172
  vertex 18.2135 21.625 17.636
  endloop
 endfacet

 facet normal 0.156605 0.0359584 -0.987007
  outer loop
  vertex -2.19117 11.2795 19.412
  vertex 5.5768 0.868764 20.2652
  vertex -1.47179 -0.0267607 19.1143
  endloop
 endfacet

 facet normal 0.259698 0.00713848 -0.965663
  outer loop
  vertex 5.5768 0.868764 20.2652
  vertex 8.28613 10.0536 21.0618
  vertex 10.7284 -1.95273 21.6298
  endloop
 endfacet

 facet normal 0.119726 -0.264528 -0.956917
  outer loop
  vertex 11.5498 17.3787 19.4452
  vertex 8.28613 10.0536 21.0618
  vertex -2.19117 11.2795 19.412
  endloop
 endfacet

 facet normal 0.562718 -0.807291 0.177848
  outer loop
  vertex 18.2135 21.625 17.636
  vertex 22.0003 25.2557 22.1347
  vertex 11.5498 17.3787 19.4452
  endloop
 endfacet

 facet normal 0.610849 -0.789335 -0.0617606
  outer loop
  vertex 19.797 22.5272 35.2145
  vertex 11.5498 17.3787 19.4452
  vertex 22.0003 25.2557 22.1347
  endloop
 endfacet

 facet normal 0.717531 -0.695203 -0.0429228
  outer loop
  vertex 26.6649 30.7132 11.719
  vertex 22.0003 25.2557 22.1347
  vertex 18.2135 21.625 17.636
  endloop
 endfacet

 facet normal 0.545413 -0.834134 -0.0821286
  outer loop
  vertex 22.0003 25.2557 22.1347
  vertex 31.6151 30.1666 36.1088
  vertex 19.797 22.5272 35.2145
  endloop
 endfacet

 facet normal 0.312188 0.119057 0.942531
  outer loop
  vertex 21.7323 52.2907 1.78336e-05
  vertex 0.666606 68.5495 4.92372
  vertex 13.8046 57.2454 2.00002
  endloop
 endfacet

 facet normal 0.306816 0.556327 -0.772246
  outer loop
  vertex 13.8046 57.2454 2.00002
  vertex 0.666606 68.5495 4.92372
  vertex 8.71737 67.4429 7.32515
  endloop
 endfacet

 facet normal 0.0224213 -0.0554247 0.998211
  outer loop
  vertex 3.93431 -43.2973 149.158
  vertex -6.8714 -29.4438 150.17
  vertex -6.14075 -43.7158 149.361
  endloop
 endfacet

 facet normal -0.354848 -0.022235 0.934659
  outer loop
  vertex -22.2538 -44.9844 145.119
  vertex -15.5376 -43.8864 147.695
  vertex -12.2624 -29.9278 149.271
  endloop
 endfacet

 facet normal -0.172894 -0.0703208 0.982427
  outer loop
  vertex -12.2624 -29.9278 149.271
  vertex -15.5376 -43.8864 147.695
  vertex -6.14075 -43.7158 149.361
  endloop
 endfacet

 facet normal -0.158607 -0.0639589 0.985268
  outer loop
  vertex -6.14075 -43.7158 149.361
  vertex -6.8714 -29.4438 150.17
  vertex -12.2624 -29.9278 149.271
  endloop
 endfacet

 facet normal -0.135279 -0.266332 0.954341
  outer loop
  vertex -6.8714 -29.4438 150.17
  vertex -12.6654 -22.1358 151.388
  vertex -12.2624 -29.9278 149.271
  endloop
 endfacet

 facet normal 0.263715 0.0484965 0.963381
  outer loop
  vertex -1.90312 -23.3872 148.505
  vertex -12.6654 -22.1358 151.388
  vertex -6.8714 -29.4438 150.17
  endloop
 endfacet

 facet normal 0.0660395 0.213752 0.974653
  outer loop
  vertex -6.8714 -29.4438 150.17
  vertex 4.6876 -26.8435 148.816
  vertex -1.90312 -23.3872 148.505
  endloop
 endfacet

 facet normal 0.421081 -0.000449859 0.907023
  outer loop
  vertex 19.4697 -43.0886 141.946
  vertex 4.6876 -26.8435 148.816
  vertex 3.93431 -43.2973 149.158
  endloop
 endfacet

 facet normal 0.482605 0.0699043 0.873044
  outer loop
  vertex 16.2569 -17.3124 141.658
  vertex 4.6876 -26.8435 148.816
  vertex 19.4697 -43.0886 141.946
  endloop
 endfacet

 facet normal 0.586058 0.458116 -0.66833
  outer loop
  vertex -31.2619 -18.3764 6.61947
  vertex -23.9488 -17.6189 13.5516
  vertex -27.4074 -21.3451 7.96456
  endloop
 endfacet

 facet normal 0.765995 0.203379 -0.609827
  outer loop
  vertex -23.9488 -17.6189 13.5516
  vertex -23.9876 -23.6363 11.496
  vertex -27.4074 -21.3451 7.96456
  endloop
 endfacet

 facet normal 0.35474 0.605264 -0.712611
  outer loop
  vertex -23.4544 -9.68009 20.5406
  vertex -23.9488 -17.6189 13.5516
  vertex -28.5574 -11.396 16.5429
  endloop
 endfacet

 facet normal 0.489618 0.644766 -0.586985
  outer loop
  vertex -23.9488 -17.6189 13.5516
  vertex -31.2619 -18.3764 6.61947
  vertex -28.5574 -11.396 16.5429
  endloop
 endfacet

 facet normal 0.971577 0.0708885 -0.225859
  outer loop
  vertex -23.9876 -23.6363 11.496
  vertex -23.9488 -17.6189 13.5516
  vertex -22.3401 -21.6504 19.2062
  endloop
 endfacet

 facet normal 0.95395 -0.0368946 -0.297688
  outer loop
  vertex -23.9488 -17.6189 13.5516
  vertex -20.9419 -13.8456 22.7195
  vertex -22.3401 -21.6504 19.2062
  endloop
 endfacet

 facet normal 0.860361 0.305556 -0.407939
  outer loop
  vertex -23.9488 -17.6189 13.5516
  vertex -23.4544 -9.68009 20.5406
  vertex -20.9419 -13.8456 22.7195
  endloop
 endfacet

 facet normal -0.86402 0.343388 -0.368176
  outer loop
  vertex 8.34527 -16.66 16.9153
  vertex 11.872 -8.01439 16.7024
  vertex 12.1912 -19.1348 5.58164
  endloop
 endfacet

 facet normal 0.112853 0.0154565 0.993491
  outer loop
  vertex 3.93431 -43.2973 149.158
  vertex 4.6876 -26.8435 148.816
  vertex -6.8714 -29.4438 150.17
  endloop
 endfacet

endsolid AssimpScene
